<mxfile host="app.diagrams.net" modified="2021-06-16T00:32:47.950Z" agent="5.0 (Macintosh; Intel Mac OS X 10_15_7) AppleWebKit/537.36 (KHTML, like Gecko) Chrome/91.0.4472.77 Safari/537.36" etag="n-dF2AqC2Db2qWd5BPvW" version="14.7.7" type="github" pages="15">
  <diagram id="bYD-6wlcabKU-R1hzNnc" name="repl">
    <mxGraphModel dx="1034" dy="597" grid="1" gridSize="10" guides="1" tooltips="1" connect="1" arrows="1" fold="1" page="1" pageScale="1" pageWidth="827" pageHeight="1169" math="0" shadow="0">
      <root>
        <mxCell id="0" />
        <mxCell id="1" parent="0" />
        <mxCell id="w_Al3-Uy9nH9oolB92Ia-1" value="Read Evaluate Print Loop" style="text;html=1;align=center;verticalAlign=middle;resizable=0;points=[];autosize=1;strokeColor=none;fontColor=#46495D;fontFamily=Comic Sans MS;fontSize=20;" parent="1" vertex="1">
          <mxGeometry x="235" y="85" width="250" height="30" as="geometry" />
        </mxCell>
        <mxCell id="w_Al3-Uy9nH9oolB92Ia-2" value="" style="rounded=1;whiteSpace=wrap;html=1;sketch=0;fontFamily=Comic Sans MS;fontSize=20;fillColor=#f8cecc;strokeColor=#b85450;" parent="1" vertex="1">
          <mxGeometry x="160" y="220" width="230" height="160" as="geometry" />
        </mxCell>
        <mxCell id="w_Al3-Uy9nH9oolB92Ia-6" value="" style="edgeStyle=orthogonalEdgeStyle;curved=0;rounded=1;sketch=0;orthogonalLoop=1;jettySize=auto;html=1;fontFamily=Comic Sans MS;fontSize=12;fontColor=#46495D;strokeColor=#788AA3;fillColor=#B2C9AB;" parent="1" source="w_Al3-Uy9nH9oolB92Ia-3" target="w_Al3-Uy9nH9oolB92Ia-4" edge="1">
          <mxGeometry relative="1" as="geometry" />
        </mxCell>
        <mxCell id="w_Al3-Uy9nH9oolB92Ia-3" value="Lexer" style="rounded=1;whiteSpace=wrap;html=1;sketch=0;fontFamily=Comic Sans MS;fontSize=12;fontColor=#46495D;strokeColor=#788AA3;fillColor=#B2C9AB;" parent="1" vertex="1">
          <mxGeometry x="180" y="275" width="70" height="40" as="geometry" />
        </mxCell>
        <mxCell id="w_Al3-Uy9nH9oolB92Ia-4" value="&lt;font style=&quot;font-size: 12px&quot;&gt;Parser&lt;/font&gt;" style="rounded=1;whiteSpace=wrap;html=1;sketch=0;fontFamily=Comic Sans MS;fontSize=20;fontColor=#46495D;strokeColor=#788AA3;fillColor=#B2C9AB;" parent="1" vertex="1">
          <mxGeometry x="310" y="275" width="60" height="40" as="geometry" />
        </mxCell>
        <mxCell id="w_Al3-Uy9nH9oolB92Ia-10" value="token" style="text;html=1;align=center;verticalAlign=middle;resizable=0;points=[];autosize=1;strokeColor=none;fontSize=12;fontFamily=Comic Sans MS;fontColor=#46495D;" parent="1" vertex="1">
          <mxGeometry x="250" y="272.5" width="50" height="20" as="geometry" />
        </mxCell>
        <mxCell id="w_Al3-Uy9nH9oolB92Ia-12" value="" style="endArrow=classic;html=1;fontFamily=Comic Sans MS;fontSize=12;fontColor=#46495D;strokeColor=#788AA3;fillColor=#B2C9AB;exitX=1;exitY=0.5;exitDx=0;exitDy=0;entryX=0;entryY=0.5;entryDx=0;entryDy=0;" parent="1" source="w_Al3-Uy9nH9oolB92Ia-4" target="w_Al3-Uy9nH9oolB92Ia-15" edge="1">
          <mxGeometry width="50" height="50" relative="1" as="geometry">
            <mxPoint x="370" y="305.5" as="sourcePoint" />
            <mxPoint x="440" y="295" as="targetPoint" />
          </mxGeometry>
        </mxCell>
        <mxCell id="w_Al3-Uy9nH9oolB92Ia-13" value="ast" style="text;html=1;align=center;verticalAlign=middle;resizable=0;points=[];autosize=1;strokeColor=none;fontSize=12;fontFamily=Comic Sans MS;fontColor=#46495D;" parent="1" vertex="1">
          <mxGeometry x="399" y="270" width="30" height="20" as="geometry" />
        </mxCell>
        <mxCell id="w_Al3-Uy9nH9oolB92Ia-14" value="Read" style="text;html=1;align=center;verticalAlign=middle;resizable=0;points=[];autosize=1;strokeColor=none;fontSize=12;fontFamily=Comic Sans MS;fontColor=#46495D;" parent="1" vertex="1">
          <mxGeometry x="160" y="190" width="40" height="20" as="geometry" />
        </mxCell>
        <mxCell id="w_Al3-Uy9nH9oolB92Ia-19" value="" style="edgeStyle=orthogonalEdgeStyle;curved=0;rounded=1;sketch=0;orthogonalLoop=1;jettySize=auto;html=1;fontFamily=Comic Sans MS;fontSize=12;fontColor=#46495D;strokeColor=#788AA3;fillColor=#B2C9AB;" parent="1" source="w_Al3-Uy9nH9oolB92Ia-15" target="w_Al3-Uy9nH9oolB92Ia-16" edge="1">
          <mxGeometry relative="1" as="geometry" />
        </mxCell>
        <mxCell id="w_Al3-Uy9nH9oolB92Ia-15" value="&lt;font style=&quot;font-size: 12px&quot;&gt;Eval&lt;/font&gt;" style="rounded=1;whiteSpace=wrap;html=1;sketch=0;fontFamily=Comic Sans MS;fontSize=20;fontColor=#46495D;strokeColor=#788AA3;fillColor=#B2C9AB;" parent="1" vertex="1">
          <mxGeometry x="440" y="275" width="60" height="40" as="geometry" />
        </mxCell>
        <mxCell id="w_Al3-Uy9nH9oolB92Ia-16" value="Print" style="rounded=1;whiteSpace=wrap;html=1;sketch=0;fontFamily=Comic Sans MS;fontSize=12;fontColor=#46495D;strokeColor=#788AA3;fillColor=#B2C9AB;" parent="1" vertex="1">
          <mxGeometry x="540" y="275" width="80" height="40" as="geometry" />
        </mxCell>
        <mxCell id="w_Al3-Uy9nH9oolB92Ia-21" value="" style="endArrow=classic;html=1;fontFamily=Comic Sans MS;fontSize=12;fontColor=#46495D;strokeColor=#788AA3;fillColor=#B2C9AB;entryX=0;entryY=0.5;entryDx=0;entryDy=0;" parent="1" target="w_Al3-Uy9nH9oolB92Ia-3" edge="1">
          <mxGeometry width="50" height="50" relative="1" as="geometry">
            <mxPoint x="100" y="295" as="sourcePoint" />
            <mxPoint x="150" y="292.5" as="targetPoint" />
          </mxGeometry>
        </mxCell>
        <mxCell id="w_Al3-Uy9nH9oolB92Ia-22" value="text" style="text;html=1;align=center;verticalAlign=middle;resizable=0;points=[];autosize=1;strokeColor=none;fontSize=12;fontFamily=Comic Sans MS;fontColor=#46495D;" parent="1" vertex="1">
          <mxGeometry x="110" y="272.5" width="40" height="20" as="geometry" />
        </mxCell>
        <mxCell id="w_Al3-Uy9nH9oolB92Ia-23" value="" style="curved=1;endArrow=classic;html=1;fontFamily=Comic Sans MS;fontSize=12;fontColor=#46495D;strokeColor=#788AA3;fillColor=#B2C9AB;exitX=0.625;exitY=1.025;exitDx=0;exitDy=0;exitPerimeter=0;" parent="1" source="w_Al3-Uy9nH9oolB92Ia-16" edge="1">
          <mxGeometry width="50" height="50" relative="1" as="geometry">
            <mxPoint x="60" y="350" as="sourcePoint" />
            <mxPoint x="90" y="295" as="targetPoint" />
            <Array as="points">
              <mxPoint x="320" y="510" />
              <mxPoint x="90" y="390" />
              <mxPoint x="60" y="300" />
            </Array>
          </mxGeometry>
        </mxCell>
      </root>
    </mxGraphModel>
  </diagram>
  <diagram id="IDgxlgijwUD1yHe02zdY" name="parser-example">
    <mxGraphModel dx="1034" dy="1766" grid="1" gridSize="10" guides="1" tooltips="1" connect="1" arrows="1" fold="1" page="1" pageScale="1" pageWidth="827" pageHeight="1169" math="0" shadow="0">
      <root>
        <mxCell id="_4mlFaS8eq7xx3cC7Mqu-0" />
        <mxCell id="_4mlFaS8eq7xx3cC7Mqu-1" parent="_4mlFaS8eq7xx3cC7Mqu-0" />
        <mxCell id="hTMgmw7-0UAndJ2Yl9Qk-26" value="" style="rounded=1;whiteSpace=wrap;html=1;sketch=0;fontFamily=Comic Sans MS;fillColor=#fad7ac;strokeColor=#b46504;" parent="_4mlFaS8eq7xx3cC7Mqu-1" vertex="1">
          <mxGeometry x="1700" y="-40" width="250" height="320" as="geometry" />
        </mxCell>
        <mxCell id="_4mlFaS8eq7xx3cC7Mqu-64" value="" style="rounded=1;whiteSpace=wrap;html=1;sketch=0;fontFamily=Comic Sans MS;fillColor=#fad7ac;strokeColor=#b46504;" parent="_4mlFaS8eq7xx3cC7Mqu-1" vertex="1">
          <mxGeometry x="1097.5" y="-140" width="255" height="640" as="geometry" />
        </mxCell>
        <mxCell id="_4mlFaS8eq7xx3cC7Mqu-56" style="edgeStyle=orthogonalEdgeStyle;curved=0;rounded=1;sketch=0;orthogonalLoop=1;jettySize=auto;html=1;fontFamily=Comic Sans MS;fontColor=#46495D;strokeColor=#788AA3;fillColor=#B2C9AB;" parent="_4mlFaS8eq7xx3cC7Mqu-1" source="_4mlFaS8eq7xx3cC7Mqu-5" edge="1">
          <mxGeometry relative="1" as="geometry">
            <mxPoint x="270" y="280" as="targetPoint" />
          </mxGeometry>
        </mxCell>
        <mxCell id="_4mlFaS8eq7xx3cC7Mqu-5" value="parser(&quot;(a (b))&quot;, nil)" style="rounded=1;whiteSpace=wrap;html=1;sketch=0;fontFamily=Comic Sans MS;fontColor=#46495D;strokeColor=#788AA3;fillColor=#B2C9AB;" parent="_4mlFaS8eq7xx3cC7Mqu-1" vertex="1">
          <mxGeometry x="90" y="255" width="120" height="50" as="geometry" />
        </mxCell>
        <mxCell id="_4mlFaS8eq7xx3cC7Mqu-12" value="" style="shape=table;html=1;whiteSpace=wrap;startSize=0;container=1;collapsible=0;childLayout=tableLayout;fillColor=#B2C9AB;strokeColor=#788AA3;fontColor=#46495D;comic=1;fontFamily=Comic Sans MS;" parent="_4mlFaS8eq7xx3cC7Mqu-1" vertex="1">
          <mxGeometry x="280" y="160" width="310" height="365" as="geometry" />
        </mxCell>
        <mxCell id="_4mlFaS8eq7xx3cC7Mqu-13" value="" style="shape=partialRectangle;html=1;whiteSpace=wrap;collapsible=0;dropTarget=0;pointerEvents=0;fillColor=none;top=0;left=0;bottom=0;right=0;points=[[0,0.5],[1,0.5]];portConstraint=eastwest;strokeColor=#788AA3;fontColor=#46495D;fontFamily=Comic Sans MS;" parent="_4mlFaS8eq7xx3cC7Mqu-12" vertex="1">
          <mxGeometry width="310" height="75" as="geometry" />
        </mxCell>
        <mxCell id="_4mlFaS8eq7xx3cC7Mqu-14" value="遇到 (，初始化空 list = .List([])" style="shape=partialRectangle;html=1;whiteSpace=wrap;connectable=0;overflow=hidden;fillColor=none;top=0;left=0;bottom=0;right=0;strokeColor=#788AA3;fontColor=#46495D;fontFamily=Comic Sans MS;" parent="_4mlFaS8eq7xx3cC7Mqu-13" vertex="1">
          <mxGeometry width="310" height="75" as="geometry" />
        </mxCell>
        <mxCell id="_4mlFaS8eq7xx3cC7Mqu-15" value="" style="shape=partialRectangle;html=1;whiteSpace=wrap;collapsible=0;dropTarget=0;pointerEvents=0;fillColor=none;top=0;left=0;bottom=0;right=0;points=[[0,0.5],[1,0.5]];portConstraint=eastwest;strokeColor=#788AA3;fontColor=#46495D;fontFamily=Comic Sans MS;" parent="_4mlFaS8eq7xx3cC7Mqu-12" vertex="1">
          <mxGeometry y="75" width="310" height="75" as="geometry" />
        </mxCell>
        <mxCell id="_4mlFaS8eq7xx3cC7Mqu-16" value="递归调用，&amp;nbsp;parser(&quot;a (b))&quot;, .List([]))" style="shape=partialRectangle;html=1;whiteSpace=wrap;connectable=0;overflow=hidden;fillColor=none;top=0;left=0;bottom=0;right=0;strokeColor=#788AA3;fontColor=#46495D;fontFamily=Comic Sans MS;" parent="_4mlFaS8eq7xx3cC7Mqu-15" vertex="1">
          <mxGeometry width="310" height="75" as="geometry" />
        </mxCell>
        <mxCell id="_4mlFaS8eq7xx3cC7Mqu-17" value="" style="shape=partialRectangle;html=1;whiteSpace=wrap;collapsible=0;dropTarget=0;pointerEvents=0;fillColor=none;top=0;left=0;bottom=0;right=0;points=[[0,0.5],[1,0.5]];portConstraint=eastwest;strokeColor=#788AA3;fontColor=#46495D;fontFamily=Comic Sans MS;" parent="_4mlFaS8eq7xx3cC7Mqu-12" vertex="1">
          <mxGeometry y="150" width="310" height="140" as="geometry" />
        </mxCell>
        <mxCell id="_4mlFaS8eq7xx3cC7Mqu-18" value="递归函返回结果：&lt;br&gt;node&amp;nbsp; = &lt;font color=&quot;#ea6b66&quot;&gt;.List([.Atom(a), .List([b])])&lt;br&gt;&lt;/font&gt;remainTokens = &#39;&#39;&lt;br&gt;&lt;br&gt;添加到父节点，此时父节点为 nil，最终节点是&amp;nbsp;&lt;span style=&quot;color: rgb(234 , 107 , 102)&quot;&gt;.List([.Atom(a), .List([b])])&lt;/span&gt;" style="shape=partialRectangle;html=1;whiteSpace=wrap;connectable=0;overflow=hidden;top=0;left=0;bottom=0;right=0;strokeColor=#23445d;fontFamily=Comic Sans MS;fillColor=#D4E1F5;" parent="_4mlFaS8eq7xx3cC7Mqu-17" vertex="1">
          <mxGeometry width="310" height="140" as="geometry" />
        </mxCell>
        <mxCell id="_4mlFaS8eq7xx3cC7Mqu-19" value="" style="shape=partialRectangle;html=1;whiteSpace=wrap;collapsible=0;dropTarget=0;pointerEvents=0;fillColor=none;top=0;left=0;bottom=0;right=0;points=[[0,0.5],[1,0.5]];portConstraint=eastwest;strokeColor=#788AA3;fontColor=#46495D;fontFamily=Comic Sans MS;" parent="_4mlFaS8eq7xx3cC7Mqu-12" vertex="1">
          <mxGeometry y="290" width="310" height="75" as="geometry" />
        </mxCell>
        <mxCell id="_4mlFaS8eq7xx3cC7Mqu-20" value="remainTokens 为空，退出循环" style="shape=partialRectangle;html=1;whiteSpace=wrap;connectable=0;overflow=hidden;fillColor=#d80073;top=0;left=0;bottom=0;right=0;strokeColor=#A50040;fontColor=#ffffff;fontFamily=Comic Sans MS;" parent="_4mlFaS8eq7xx3cC7Mqu-19" vertex="1">
          <mxGeometry width="310" height="75" as="geometry" />
        </mxCell>
        <mxCell id="_4mlFaS8eq7xx3cC7Mqu-25" value="" style="shape=table;html=1;whiteSpace=wrap;startSize=0;container=1;collapsible=0;childLayout=tableLayout;fillColor=#B2C9AB;strokeColor=#788AA3;fontColor=#46495D;fontFamily=Comic Sans MS;comic=1;" parent="_4mlFaS8eq7xx3cC7Mqu-1" vertex="1">
          <mxGeometry x="1125" y="-110" width="200" height="150" as="geometry" />
        </mxCell>
        <mxCell id="_4mlFaS8eq7xx3cC7Mqu-26" value="" style="shape=partialRectangle;html=1;whiteSpace=wrap;collapsible=0;dropTarget=0;pointerEvents=0;fillColor=none;top=0;left=0;bottom=0;right=0;points=[[0,0.5],[1,0.5]];portConstraint=eastwest;strokeColor=#788AA3;fontColor=#46495D;fontFamily=Comic Sans MS;" parent="_4mlFaS8eq7xx3cC7Mqu-25" vertex="1">
          <mxGeometry width="200" height="50" as="geometry" />
        </mxCell>
        <mxCell id="_4mlFaS8eq7xx3cC7Mqu-27" value="a" style="shape=partialRectangle;html=1;whiteSpace=wrap;connectable=0;overflow=hidden;fillColor=none;top=0;left=0;bottom=0;right=0;strokeColor=#788AA3;fontColor=#46495D;fontFamily=Comic Sans MS;" parent="_4mlFaS8eq7xx3cC7Mqu-26" vertex="1">
          <mxGeometry width="200" height="50" as="geometry" />
        </mxCell>
        <mxCell id="_4mlFaS8eq7xx3cC7Mqu-28" value="" style="shape=partialRectangle;html=1;whiteSpace=wrap;collapsible=0;dropTarget=0;pointerEvents=0;fillColor=none;top=0;left=0;bottom=0;right=0;points=[[0,0.5],[1,0.5]];portConstraint=eastwest;strokeColor=#788AA3;fontColor=#46495D;fontFamily=Comic Sans MS;" parent="_4mlFaS8eq7xx3cC7Mqu-25" vertex="1">
          <mxGeometry y="50" width="200" height="50" as="geometry" />
        </mxCell>
        <mxCell id="_4mlFaS8eq7xx3cC7Mqu-29" value=".Atom(a) 添加到父节点" style="shape=partialRectangle;html=1;whiteSpace=wrap;connectable=0;overflow=hidden;fillColor=none;top=0;left=0;bottom=0;right=0;strokeColor=#788AA3;fontColor=#46495D;fontFamily=Comic Sans MS;" parent="_4mlFaS8eq7xx3cC7Mqu-28" vertex="1">
          <mxGeometry width="200" height="50" as="geometry" />
        </mxCell>
        <mxCell id="_4mlFaS8eq7xx3cC7Mqu-30" value="" style="shape=partialRectangle;html=1;whiteSpace=wrap;collapsible=0;dropTarget=0;pointerEvents=0;fillColor=none;top=0;left=0;bottom=0;right=0;points=[[0,0.5],[1,0.5]];portConstraint=eastwest;strokeColor=#788AA3;fontColor=#46495D;fontFamily=Comic Sans MS;" parent="_4mlFaS8eq7xx3cC7Mqu-25" vertex="1">
          <mxGeometry y="100" width="200" height="50" as="geometry" />
        </mxCell>
        <mxCell id="_4mlFaS8eq7xx3cC7Mqu-31" value="父节点此时为：.List([.Atom(a)])" style="shape=partialRectangle;html=1;whiteSpace=wrap;connectable=0;overflow=hidden;fillColor=none;top=0;left=0;bottom=0;right=0;strokeColor=#788AA3;fontColor=#46495D;fontFamily=Comic Sans MS;" parent="_4mlFaS8eq7xx3cC7Mqu-30" vertex="1">
          <mxGeometry width="200" height="50" as="geometry" />
        </mxCell>
        <mxCell id="_4mlFaS8eq7xx3cC7Mqu-34" value="" style="shape=table;html=1;whiteSpace=wrap;startSize=0;container=1;collapsible=0;childLayout=tableLayout;fillColor=#B2C9AB;strokeColor=#788AA3;fontColor=#46495D;fontFamily=Comic Sans MS;comic=1;" parent="_4mlFaS8eq7xx3cC7Mqu-1" vertex="1">
          <mxGeometry x="1725" y="-10" width="200" height="115" as="geometry" />
        </mxCell>
        <mxCell id="_4mlFaS8eq7xx3cC7Mqu-35" value="" style="shape=partialRectangle;html=1;whiteSpace=wrap;collapsible=0;dropTarget=0;pointerEvents=0;fillColor=none;top=0;left=0;bottom=0;right=0;points=[[0,0.5],[1,0.5]];portConstraint=eastwest;strokeColor=#788AA3;fontColor=#46495D;fontFamily=Comic Sans MS;" parent="_4mlFaS8eq7xx3cC7Mqu-34" vertex="1">
          <mxGeometry width="200" height="40" as="geometry" />
        </mxCell>
        <mxCell id="_4mlFaS8eq7xx3cC7Mqu-36" value="b" style="shape=partialRectangle;html=1;whiteSpace=wrap;connectable=0;overflow=hidden;fillColor=none;top=0;left=0;bottom=0;right=0;strokeColor=#788AA3;fontColor=#46495D;fontFamily=Comic Sans MS;" parent="_4mlFaS8eq7xx3cC7Mqu-35" vertex="1">
          <mxGeometry width="200" height="40" as="geometry" />
        </mxCell>
        <mxCell id="_4mlFaS8eq7xx3cC7Mqu-37" value="" style="shape=partialRectangle;html=1;whiteSpace=wrap;collapsible=0;dropTarget=0;pointerEvents=0;fillColor=none;top=0;left=0;bottom=0;right=0;points=[[0,0.5],[1,0.5]];portConstraint=eastwest;strokeColor=#788AA3;fontColor=#46495D;fontFamily=Comic Sans MS;" parent="_4mlFaS8eq7xx3cC7Mqu-34" vertex="1">
          <mxGeometry y="40" width="200" height="35" as="geometry" />
        </mxCell>
        <mxCell id="_4mlFaS8eq7xx3cC7Mqu-38" value=".Atom(b) 添加到父节点" style="shape=partialRectangle;html=1;whiteSpace=wrap;connectable=0;overflow=hidden;fillColor=none;top=0;left=0;bottom=0;right=0;strokeColor=#788AA3;fontColor=#46495D;fontFamily=Comic Sans MS;" parent="_4mlFaS8eq7xx3cC7Mqu-37" vertex="1">
          <mxGeometry width="200" height="35" as="geometry" />
        </mxCell>
        <mxCell id="_4mlFaS8eq7xx3cC7Mqu-39" value="" style="shape=partialRectangle;html=1;whiteSpace=wrap;collapsible=0;dropTarget=0;pointerEvents=0;fillColor=none;top=0;left=0;bottom=0;right=0;points=[[0,0.5],[1,0.5]];portConstraint=eastwest;strokeColor=#788AA3;fontColor=#46495D;fontFamily=Comic Sans MS;" parent="_4mlFaS8eq7xx3cC7Mqu-34" vertex="1">
          <mxGeometry y="75" width="200" height="40" as="geometry" />
        </mxCell>
        <mxCell id="_4mlFaS8eq7xx3cC7Mqu-40" value=".List([.Atom(b)])" style="shape=partialRectangle;html=1;whiteSpace=wrap;connectable=0;overflow=hidden;fillColor=none;top=0;left=0;bottom=0;right=0;strokeColor=#788AA3;fontColor=#46495D;fontFamily=Comic Sans MS;" parent="_4mlFaS8eq7xx3cC7Mqu-39" vertex="1">
          <mxGeometry width="200" height="40" as="geometry" />
        </mxCell>
        <mxCell id="_4mlFaS8eq7xx3cC7Mqu-43" value="" style="shape=table;html=1;whiteSpace=wrap;startSize=0;container=1;collapsible=0;childLayout=tableLayout;fillColor=#B2C9AB;strokeColor=#788AA3;fontColor=#46495D;fontFamily=Comic Sans MS;comic=1;" parent="_4mlFaS8eq7xx3cC7Mqu-1" vertex="1">
          <mxGeometry x="1125" y="340" width="200" height="139" as="geometry" />
        </mxCell>
        <mxCell id="_4mlFaS8eq7xx3cC7Mqu-44" value="" style="shape=partialRectangle;html=1;whiteSpace=wrap;collapsible=0;dropTarget=0;pointerEvents=0;fillColor=none;top=0;left=0;bottom=0;right=0;points=[[0,0.5],[1,0.5]];portConstraint=eastwest;strokeColor=#788AA3;fontColor=#46495D;fontFamily=Comic Sans MS;" parent="_4mlFaS8eq7xx3cC7Mqu-43" vertex="1">
          <mxGeometry width="200" height="47" as="geometry" />
        </mxCell>
        <mxCell id="_4mlFaS8eq7xx3cC7Mqu-45" value=")" style="shape=partialRectangle;html=1;whiteSpace=wrap;connectable=0;overflow=hidden;fillColor=none;top=0;left=0;bottom=0;right=0;strokeColor=#788AA3;fontColor=#46495D;fontFamily=Comic Sans MS;" parent="_4mlFaS8eq7xx3cC7Mqu-44" vertex="1">
          <mxGeometry width="200" height="47" as="geometry" />
        </mxCell>
        <mxCell id="_4mlFaS8eq7xx3cC7Mqu-46" value="" style="shape=partialRectangle;html=1;whiteSpace=wrap;collapsible=0;dropTarget=0;pointerEvents=0;fillColor=none;top=0;left=0;bottom=0;right=0;points=[[0,0.5],[1,0.5]];portConstraint=eastwest;strokeColor=#788AA3;fontColor=#46495D;fontFamily=Comic Sans MS;" parent="_4mlFaS8eq7xx3cC7Mqu-43" vertex="1">
          <mxGeometry y="47" width="200" height="46" as="geometry" />
        </mxCell>
        <mxCell id="_4mlFaS8eq7xx3cC7Mqu-47" value="返回节点：.List([.Atom(a), .List([b])])" style="shape=partialRectangle;html=1;whiteSpace=wrap;connectable=0;overflow=hidden;fillColor=#1ba1e2;top=0;left=0;bottom=0;right=0;strokeColor=#006EAF;fontColor=#ffffff;fontFamily=Comic Sans MS;" parent="_4mlFaS8eq7xx3cC7Mqu-46" vertex="1">
          <mxGeometry width="200" height="46" as="geometry" />
        </mxCell>
        <mxCell id="YtVXQPlO4M4Zjdi4VDkw-2" style="shape=partialRectangle;html=1;whiteSpace=wrap;collapsible=0;dropTarget=0;pointerEvents=0;fillColor=none;top=0;left=0;bottom=0;right=0;points=[[0,0.5],[1,0.5]];portConstraint=eastwest;strokeColor=#788AA3;fontColor=#46495D;fontFamily=Comic Sans MS;" vertex="1" parent="_4mlFaS8eq7xx3cC7Mqu-43">
          <mxGeometry y="93" width="200" height="46" as="geometry" />
        </mxCell>
        <mxCell id="YtVXQPlO4M4Zjdi4VDkw-3" value="&lt;span&gt;返回 remainTokens = &quot;&quot;&lt;/span&gt;" style="shape=partialRectangle;html=1;whiteSpace=wrap;connectable=0;overflow=hidden;top=0;left=0;bottom=0;right=0;strokeColor=#006EAF;fontColor=#ffffff;fontFamily=Comic Sans MS;fillColor=#A20025;" vertex="1" parent="YtVXQPlO4M4Zjdi4VDkw-2">
          <mxGeometry width="200" height="46" as="geometry" />
        </mxCell>
        <mxCell id="_4mlFaS8eq7xx3cC7Mqu-65" style="edgeStyle=orthogonalEdgeStyle;curved=0;rounded=1;sketch=0;orthogonalLoop=1;jettySize=auto;html=1;entryX=0;entryY=0.5;entryDx=0;entryDy=0;fontFamily=Comic Sans MS;fontColor=#46495D;strokeColor=#788AA3;fillColor=#B2C9AB;" parent="_4mlFaS8eq7xx3cC7Mqu-1" source="_4mlFaS8eq7xx3cC7Mqu-57" target="_4mlFaS8eq7xx3cC7Mqu-64" edge="1">
          <mxGeometry relative="1" as="geometry" />
        </mxCell>
        <mxCell id="_4mlFaS8eq7xx3cC7Mqu-57" value="parser(&quot;a (b))&quot;, .List([]))" style="rounded=1;whiteSpace=wrap;html=1;sketch=0;fontFamily=Comic Sans MS;fontColor=#46495D;strokeColor=#788AA3;fillColor=#B2C9AB;" parent="_4mlFaS8eq7xx3cC7Mqu-1" vertex="1">
          <mxGeometry x="800" y="160" width="150" height="50" as="geometry" />
        </mxCell>
        <mxCell id="_4mlFaS8eq7xx3cC7Mqu-58" style="edgeStyle=orthogonalEdgeStyle;curved=0;rounded=1;sketch=0;orthogonalLoop=1;jettySize=auto;html=1;entryX=0;entryY=0.5;entryDx=0;entryDy=0;fontFamily=Comic Sans MS;fontColor=#46495D;fillColor=#B2C9AB;strokeColor=#EA6B66;" parent="_4mlFaS8eq7xx3cC7Mqu-1" source="_4mlFaS8eq7xx3cC7Mqu-15" target="_4mlFaS8eq7xx3cC7Mqu-57" edge="1">
          <mxGeometry relative="1" as="geometry" />
        </mxCell>
        <mxCell id="_4mlFaS8eq7xx3cC7Mqu-61" style="edgeStyle=orthogonalEdgeStyle;curved=0;rounded=1;sketch=0;orthogonalLoop=1;jettySize=auto;html=1;entryX=1;entryY=0.5;entryDx=0;entryDy=0;fontFamily=Comic Sans MS;fontColor=#46495D;fillColor=#B2C9AB;strokeColor=#EA6B66;" parent="_4mlFaS8eq7xx3cC7Mqu-1" source="_4mlFaS8eq7xx3cC7Mqu-46" target="_4mlFaS8eq7xx3cC7Mqu-17" edge="1">
          <mxGeometry relative="1" as="geometry" />
        </mxCell>
        <mxCell id="_4mlFaS8eq7xx3cC7Mqu-62" value="递归返回" style="text;html=1;align=center;verticalAlign=middle;resizable=0;points=[];autosize=1;strokeColor=none;fontFamily=Comic Sans MS;fontColor=#46495D;" parent="_4mlFaS8eq7xx3cC7Mqu-1" vertex="1">
          <mxGeometry x="600" y="350" width="60" height="20" as="geometry" />
        </mxCell>
        <mxCell id="_4mlFaS8eq7xx3cC7Mqu-66" value="解析 &quot;a (b))&quot; 的过程" style="text;html=1;align=center;verticalAlign=middle;resizable=0;points=[];autosize=1;strokeColor=#56517e;fontFamily=Comic Sans MS;fillColor=#d0cee2;" parent="_4mlFaS8eq7xx3cC7Mqu-1" vertex="1">
          <mxGeometry x="1175" y="-170" width="120" height="20" as="geometry" />
        </mxCell>
        <mxCell id="_4mlFaS8eq7xx3cC7Mqu-67" value="处理步骤" style="text;html=1;align=center;verticalAlign=middle;resizable=0;points=[];autosize=1;strokeColor=#56517e;fontFamily=Comic Sans MS;fillColor=#d0cee2;" parent="_4mlFaS8eq7xx3cC7Mqu-1" vertex="1">
          <mxGeometry x="400" y="130" width="60" height="20" as="geometry" />
        </mxCell>
        <mxCell id="IgfBPxlftsUJ-9vwSgzn-0" value="递归调用" style="text;html=1;align=center;verticalAlign=middle;resizable=0;points=[];autosize=1;strokeColor=none;fontFamily=Comic Sans MS;fontColor=#46495D;" parent="_4mlFaS8eq7xx3cC7Mqu-1" vertex="1">
          <mxGeometry x="600" y="250" width="60" height="20" as="geometry" />
        </mxCell>
        <mxCell id="hTMgmw7-0UAndJ2Yl9Qk-0" value="" style="shape=table;html=1;whiteSpace=wrap;startSize=0;container=1;collapsible=0;childLayout=tableLayout;fillColor=#B2C9AB;strokeColor=#788AA3;fontColor=#46495D;fontFamily=Comic Sans MS;comic=1;" parent="_4mlFaS8eq7xx3cC7Mqu-1" vertex="1">
          <mxGeometry x="1125" y="65" width="200" height="235" as="geometry" />
        </mxCell>
        <mxCell id="hTMgmw7-0UAndJ2Yl9Qk-1" value="" style="shape=partialRectangle;html=1;whiteSpace=wrap;collapsible=0;dropTarget=0;pointerEvents=0;fillColor=none;top=0;left=0;bottom=0;right=0;points=[[0,0.5],[1,0.5]];portConstraint=eastwest;strokeColor=#788AA3;fontColor=#46495D;fontFamily=Comic Sans MS;" parent="hTMgmw7-0UAndJ2Yl9Qk-0" vertex="1">
          <mxGeometry width="200" height="48" as="geometry" />
        </mxCell>
        <mxCell id="hTMgmw7-0UAndJ2Yl9Qk-2" value="（" style="shape=partialRectangle;html=1;whiteSpace=wrap;connectable=0;overflow=hidden;fillColor=none;top=0;left=0;bottom=0;right=0;strokeColor=#788AA3;fontColor=#46495D;fontFamily=Comic Sans MS;" parent="hTMgmw7-0UAndJ2Yl9Qk-1" vertex="1">
          <mxGeometry width="200" height="48" as="geometry" />
        </mxCell>
        <mxCell id="hTMgmw7-0UAndJ2Yl9Qk-3" value="" style="shape=partialRectangle;html=1;whiteSpace=wrap;collapsible=0;dropTarget=0;pointerEvents=0;fillColor=none;top=0;left=0;bottom=0;right=0;points=[[0,0.5],[1,0.5]];portConstraint=eastwest;strokeColor=#788AA3;fontColor=#46495D;fontFamily=Comic Sans MS;" parent="hTMgmw7-0UAndJ2Yl9Qk-0" vertex="1">
          <mxGeometry y="48" width="200" height="46" as="geometry" />
        </mxCell>
        <mxCell id="hTMgmw7-0UAndJ2Yl9Qk-4" value="递归调用" style="shape=partialRectangle;html=1;whiteSpace=wrap;connectable=0;overflow=hidden;fillColor=none;top=0;left=0;bottom=0;right=0;strokeColor=#788AA3;fontColor=#46495D;fontFamily=Comic Sans MS;" parent="hTMgmw7-0UAndJ2Yl9Qk-3" vertex="1">
          <mxGeometry width="200" height="46" as="geometry" />
        </mxCell>
        <mxCell id="hTMgmw7-0UAndJ2Yl9Qk-5" value="" style="shape=partialRectangle;html=1;whiteSpace=wrap;collapsible=0;dropTarget=0;pointerEvents=0;fillColor=none;top=0;left=0;bottom=0;right=0;points=[[0,0.5],[1,0.5]];portConstraint=eastwest;strokeColor=#788AA3;fontColor=#46495D;fontFamily=Comic Sans MS;" parent="hTMgmw7-0UAndJ2Yl9Qk-0" vertex="1">
          <mxGeometry y="94" width="200" height="48" as="geometry" />
        </mxCell>
        <mxCell id="hTMgmw7-0UAndJ2Yl9Qk-6" value="递归返回节点，添加到父节点" style="shape=partialRectangle;html=1;whiteSpace=wrap;connectable=0;overflow=hidden;fillColor=none;top=0;left=0;bottom=0;right=0;strokeColor=#788AA3;fontColor=#46495D;fontFamily=Comic Sans MS;" parent="hTMgmw7-0UAndJ2Yl9Qk-5" vertex="1">
          <mxGeometry width="200" height="48" as="geometry" />
        </mxCell>
        <mxCell id="hTMgmw7-0UAndJ2Yl9Qk-23" value="" style="shape=partialRectangle;html=1;whiteSpace=wrap;collapsible=0;dropTarget=0;pointerEvents=0;fillColor=none;top=0;left=0;bottom=0;right=0;points=[[0,0.5],[1,0.5]];portConstraint=eastwest;strokeColor=#788AA3;fontColor=#46495D;fontFamily=Comic Sans MS;" parent="hTMgmw7-0UAndJ2Yl9Qk-0" vertex="1">
          <mxGeometry y="142" width="200" height="46" as="geometry" />
        </mxCell>
        <mxCell id="hTMgmw7-0UAndJ2Yl9Qk-24" value="父节点此时为：.List([.Atom(a), .List([b])])" style="shape=partialRectangle;html=1;whiteSpace=wrap;connectable=0;overflow=hidden;fillColor=none;top=0;left=0;bottom=0;right=0;strokeColor=#788AA3;fontColor=#46495D;fontFamily=Comic Sans MS;" parent="hTMgmw7-0UAndJ2Yl9Qk-23" vertex="1">
          <mxGeometry width="200" height="46" as="geometry" />
        </mxCell>
        <mxCell id="hTMgmw7-0UAndJ2Yl9Qk-35" value="" style="shape=partialRectangle;html=1;whiteSpace=wrap;collapsible=0;dropTarget=0;pointerEvents=0;fillColor=#1ba1e2;top=0;left=0;bottom=0;right=0;points=[[0,0.5],[1,0.5]];portConstraint=eastwest;strokeColor=#006EAF;fontColor=#ffffff;fontFamily=Comic Sans MS;" parent="hTMgmw7-0UAndJ2Yl9Qk-0" vertex="1">
          <mxGeometry y="188" width="200" height="47" as="geometry" />
        </mxCell>
        <mxCell id="hTMgmw7-0UAndJ2Yl9Qk-36" value="remainTokens = )，继续遍历" style="shape=partialRectangle;html=1;whiteSpace=wrap;connectable=0;overflow=hidden;fillColor=#d80073;top=0;left=0;bottom=0;right=0;strokeColor=#A50040;fontColor=#ffffff;fontFamily=Comic Sans MS;" parent="hTMgmw7-0UAndJ2Yl9Qk-35" vertex="1">
          <mxGeometry width="200" height="47" as="geometry" />
        </mxCell>
        <mxCell id="hTMgmw7-0UAndJ2Yl9Qk-7" style="edgeStyle=orthogonalEdgeStyle;curved=0;rounded=1;sketch=0;orthogonalLoop=1;jettySize=auto;html=1;fontFamily=Comic Sans MS;fontColor=#46495D;fillColor=#B2C9AB;align=center;entryX=0;entryY=0.5;entryDx=0;entryDy=0;strokeColor=#EA6B66;" parent="_4mlFaS8eq7xx3cC7Mqu-1" source="hTMgmw7-0UAndJ2Yl9Qk-3" target="hTMgmw7-0UAndJ2Yl9Qk-8" edge="1">
          <mxGeometry relative="1" as="geometry">
            <mxPoint x="1420" y="100" as="targetPoint" />
          </mxGeometry>
        </mxCell>
        <mxCell id="hTMgmw7-0UAndJ2Yl9Qk-31" value="" style="edgeStyle=orthogonalEdgeStyle;curved=0;rounded=1;sketch=0;orthogonalLoop=1;jettySize=auto;html=1;fontFamily=Comic Sans MS;fontColor=#46495D;strokeColor=#788AA3;fillColor=#B2C9AB;align=center;" parent="_4mlFaS8eq7xx3cC7Mqu-1" edge="1">
          <mxGeometry relative="1" as="geometry">
            <mxPoint x="1635" y="100" as="sourcePoint" />
            <mxPoint x="1695" y="100" as="targetPoint" />
            <Array as="points">
              <mxPoint x="1675" y="100" />
              <mxPoint x="1675" y="100" />
            </Array>
          </mxGeometry>
        </mxCell>
        <mxCell id="hTMgmw7-0UAndJ2Yl9Qk-8" value="parser(&quot;b))&quot;, .List([]))" style="rounded=1;whiteSpace=wrap;html=1;sketch=0;fontFamily=Comic Sans MS;fontColor=#46495D;strokeColor=#788AA3;fillColor=#B2C9AB;" parent="_4mlFaS8eq7xx3cC7Mqu-1" vertex="1">
          <mxGeometry x="1480" y="75" width="150" height="50" as="geometry" />
        </mxCell>
        <mxCell id="hTMgmw7-0UAndJ2Yl9Qk-9" value="" style="shape=table;html=1;whiteSpace=wrap;startSize=0;container=1;collapsible=0;childLayout=tableLayout;fillColor=#B2C9AB;strokeColor=#788AA3;fontColor=#46495D;fontFamily=Comic Sans MS;comic=1;" parent="_4mlFaS8eq7xx3cC7Mqu-1" vertex="1">
          <mxGeometry x="1725" y="140" width="200" height="117" as="geometry" />
        </mxCell>
        <mxCell id="hTMgmw7-0UAndJ2Yl9Qk-10" value="" style="shape=partialRectangle;html=1;whiteSpace=wrap;collapsible=0;dropTarget=0;pointerEvents=0;fillColor=none;top=0;left=0;bottom=0;right=0;points=[[0,0.5],[1,0.5]];portConstraint=eastwest;strokeColor=#788AA3;fontColor=#46495D;fontFamily=Comic Sans MS;" parent="hTMgmw7-0UAndJ2Yl9Qk-9" vertex="1">
          <mxGeometry width="200" height="39" as="geometry" />
        </mxCell>
        <mxCell id="hTMgmw7-0UAndJ2Yl9Qk-11" value=")" style="shape=partialRectangle;html=1;whiteSpace=wrap;connectable=0;overflow=hidden;fillColor=none;top=0;left=0;bottom=0;right=0;strokeColor=#788AA3;fontColor=#46495D;fontFamily=Comic Sans MS;" parent="hTMgmw7-0UAndJ2Yl9Qk-10" vertex="1">
          <mxGeometry width="200" height="39" as="geometry" />
        </mxCell>
        <mxCell id="hTMgmw7-0UAndJ2Yl9Qk-12" value="" style="shape=partialRectangle;html=1;whiteSpace=wrap;collapsible=0;dropTarget=0;pointerEvents=0;fillColor=none;top=0;left=0;bottom=0;right=0;points=[[0,0.5],[1,0.5]];portConstraint=eastwest;strokeColor=#788AA3;fontColor=#46495D;fontFamily=Comic Sans MS;" parent="hTMgmw7-0UAndJ2Yl9Qk-9" vertex="1">
          <mxGeometry y="39" width="200" height="39" as="geometry" />
        </mxCell>
        <mxCell id="hTMgmw7-0UAndJ2Yl9Qk-13" value="返回节点: .List([.Atom(b)])" style="shape=partialRectangle;html=1;whiteSpace=wrap;connectable=0;overflow=hidden;fillColor=#1ba1e2;top=0;left=0;bottom=0;right=0;strokeColor=#006EAF;fontFamily=Comic Sans MS;fontColor=#ffffff;" parent="hTMgmw7-0UAndJ2Yl9Qk-12" vertex="1">
          <mxGeometry width="200" height="39" as="geometry" />
        </mxCell>
        <mxCell id="hTMgmw7-0UAndJ2Yl9Qk-37" value="" style="shape=partialRectangle;html=1;whiteSpace=wrap;collapsible=0;dropTarget=0;pointerEvents=0;fillColor=none;top=0;left=0;bottom=0;right=0;points=[[0,0.5],[1,0.5]];portConstraint=eastwest;strokeColor=#788AA3;fontColor=#46495D;fontFamily=Comic Sans MS;" parent="hTMgmw7-0UAndJ2Yl9Qk-9" vertex="1">
          <mxGeometry y="78" width="200" height="39" as="geometry" />
        </mxCell>
        <mxCell id="hTMgmw7-0UAndJ2Yl9Qk-38" value="返回 remainTokens = &quot;)&quot;" style="shape=partialRectangle;html=1;whiteSpace=wrap;connectable=0;overflow=hidden;fillColor=#a20025;top=0;left=0;bottom=0;right=0;strokeColor=#6F0000;fontFamily=Comic Sans MS;fontColor=#ffffff;" parent="hTMgmw7-0UAndJ2Yl9Qk-37" vertex="1">
          <mxGeometry width="200" height="39" as="geometry" />
        </mxCell>
        <mxCell id="hTMgmw7-0UAndJ2Yl9Qk-25" style="edgeStyle=orthogonalEdgeStyle;curved=0;rounded=1;sketch=0;orthogonalLoop=1;jettySize=auto;html=1;fontFamily=Comic Sans MS;fontColor=#46495D;fillColor=#B2C9AB;align=center;entryX=1;entryY=0.5;entryDx=0;entryDy=0;strokeColor=#EA6B66;" parent="_4mlFaS8eq7xx3cC7Mqu-1" source="hTMgmw7-0UAndJ2Yl9Qk-12" target="hTMgmw7-0UAndJ2Yl9Qk-5" edge="1">
          <mxGeometry relative="1" as="geometry">
            <mxPoint x="1400" y="170" as="targetPoint" />
          </mxGeometry>
        </mxCell>
        <mxCell id="hTMgmw7-0UAndJ2Yl9Qk-32" value="解析 &quot;b))&quot; 的过程" style="text;html=1;align=center;verticalAlign=middle;resizable=0;points=[];autosize=1;strokeColor=#56517e;fontFamily=Comic Sans MS;fillColor=#d0cee2;" parent="_4mlFaS8eq7xx3cC7Mqu-1" vertex="1">
          <mxGeometry x="1770" y="-70" width="110" height="20" as="geometry" />
        </mxCell>
        <mxCell id="hTMgmw7-0UAndJ2Yl9Qk-33" value="递归返回" style="text;html=1;align=center;verticalAlign=middle;resizable=0;points=[];autosize=1;strokeColor=none;fontFamily=Comic Sans MS;fontColor=#46495D;" parent="_4mlFaS8eq7xx3cC7Mqu-1" vertex="1">
          <mxGeometry x="1370" y="160" width="60" height="20" as="geometry" />
        </mxCell>
        <mxCell id="hTMgmw7-0UAndJ2Yl9Qk-34" value="递归调用" style="text;html=1;align=center;verticalAlign=middle;resizable=0;points=[];autosize=1;strokeColor=none;fontFamily=Comic Sans MS;fontColor=#46495D;" parent="_4mlFaS8eq7xx3cC7Mqu-1" vertex="1">
          <mxGeometry x="1410" y="75" width="60" height="20" as="geometry" />
        </mxCell>
        <mxCell id="hTMgmw7-0UAndJ2Yl9Qk-44" value="" style="edgeStyle=elbowEdgeStyle;elbow=vertical;endArrow=classic;html=1;fontFamily=Comic Sans MS;fontColor=#46495D;strokeColor=#788AA3;fillColor=#B2C9AB;align=center;exitX=0.66;exitY=1.021;exitDx=0;exitDy=0;exitPerimeter=0;" parent="_4mlFaS8eq7xx3cC7Mqu-1" source="hTMgmw7-0UAndJ2Yl9Qk-35" target="_4mlFaS8eq7xx3cC7Mqu-44" edge="1">
          <mxGeometry width="50" height="50" relative="1" as="geometry">
            <mxPoint x="1320" y="280" as="sourcePoint" />
            <mxPoint x="1375" y="240" as="targetPoint" />
          </mxGeometry>
        </mxCell>
      </root>
    </mxGraphModel>
  </diagram>
  <diagram id="BxJlmRCdKB-YVktXmWqv" name="parser">
    <mxGraphModel dx="1034" dy="1762" grid="1" gridSize="10" guides="1" tooltips="1" connect="1" arrows="1" fold="1" page="1" pageScale="1" pageWidth="827" pageHeight="1169" math="0" shadow="0">
      <root>
        <mxCell id="IUG3ZgZPdK8sgtfe1htu-0" />
        <mxCell id="IUG3ZgZPdK8sgtfe1htu-1" parent="IUG3ZgZPdK8sgtfe1htu-0" />
        <mxCell id="-RJvNgX3KiUq18bfSwnl-0" value="" style="shape=table;html=1;whiteSpace=wrap;startSize=0;container=1;collapsible=0;childLayout=tableLayout;fillColor=#B2C9AB;strokeColor=#788AA3;fontColor=#46495D;comic=1;fontFamily=Comic Sans MS;align=center;" vertex="1" parent="IUG3ZgZPdK8sgtfe1htu-1">
          <mxGeometry x="280" y="140" width="310" height="240" as="geometry" />
        </mxCell>
        <mxCell id="-RJvNgX3KiUq18bfSwnl-1" value="" style="shape=partialRectangle;html=1;whiteSpace=wrap;collapsible=0;dropTarget=0;pointerEvents=0;fillColor=none;top=0;left=0;bottom=0;right=0;points=[[0,0.5],[1,0.5]];portConstraint=eastwest;strokeColor=#788AA3;fontColor=#46495D;fontFamily=Comic Sans MS;align=center;" vertex="1" parent="-RJvNgX3KiUq18bfSwnl-0">
          <mxGeometry width="310" height="60" as="geometry" />
        </mxCell>
        <mxCell id="-RJvNgX3KiUq18bfSwnl-2" value="遇到 (，初始化空 list = .List([])" style="shape=partialRectangle;html=1;whiteSpace=wrap;connectable=0;overflow=hidden;fillColor=none;top=0;left=0;bottom=0;right=0;strokeColor=#788AA3;fontColor=#46495D;fontFamily=Comic Sans MS;align=center;" vertex="1" parent="-RJvNgX3KiUq18bfSwnl-1">
          <mxGeometry width="310" height="60" as="geometry" />
        </mxCell>
        <mxCell id="-RJvNgX3KiUq18bfSwnl-3" value="" style="shape=partialRectangle;html=1;whiteSpace=wrap;collapsible=0;dropTarget=0;pointerEvents=0;fillColor=none;top=0;left=0;bottom=0;right=0;points=[[0,0.5],[1,0.5]];portConstraint=eastwest;strokeColor=#788AA3;fontColor=#46495D;fontFamily=Comic Sans MS;align=center;" vertex="1" parent="-RJvNgX3KiUq18bfSwnl-0">
          <mxGeometry y="60" width="310" height="60" as="geometry" />
        </mxCell>
        <mxCell id="-RJvNgX3KiUq18bfSwnl-4" value="递归调用，&amp;nbsp;parser(tokens, .List([]))" style="shape=partialRectangle;html=1;whiteSpace=wrap;connectable=0;overflow=hidden;fillColor=none;top=0;left=0;bottom=0;right=0;strokeColor=#788AA3;fontColor=#46495D;fontFamily=Comic Sans MS;align=center;" vertex="1" parent="-RJvNgX3KiUq18bfSwnl-3">
          <mxGeometry width="310" height="60" as="geometry" />
        </mxCell>
        <mxCell id="-RJvNgX3KiUq18bfSwnl-5" value="" style="shape=partialRectangle;html=1;whiteSpace=wrap;collapsible=0;dropTarget=0;pointerEvents=0;fillColor=none;top=0;left=0;bottom=0;right=0;points=[[0,0.5],[1,0.5]];portConstraint=eastwest;strokeColor=#788AA3;fontColor=#46495D;fontFamily=Comic Sans MS;align=center;" vertex="1" parent="-RJvNgX3KiUq18bfSwnl-0">
          <mxGeometry y="120" width="310" height="60" as="geometry" />
        </mxCell>
        <mxCell id="-RJvNgX3KiUq18bfSwnl-6" value="递归函返回结果：(remainTokens,&amp;nbsp;&lt;br&gt;node) 。&lt;br&gt;添加节点 parentNode.append(node)" style="shape=partialRectangle;html=1;whiteSpace=wrap;connectable=0;overflow=hidden;fillColor=none;top=0;left=0;bottom=0;right=0;strokeColor=#788AA3;fontColor=#46495D;fontFamily=Comic Sans MS;align=center;" vertex="1" parent="-RJvNgX3KiUq18bfSwnl-5">
          <mxGeometry width="310" height="60" as="geometry" />
        </mxCell>
        <mxCell id="-RJvNgX3KiUq18bfSwnl-7" value="" style="shape=partialRectangle;html=1;whiteSpace=wrap;collapsible=0;dropTarget=0;pointerEvents=0;fillColor=none;top=0;left=0;bottom=0;right=0;points=[[0,0.5],[1,0.5]];portConstraint=eastwest;strokeColor=#788AA3;fontColor=#46495D;fontFamily=Comic Sans MS;align=center;" vertex="1" parent="-RJvNgX3KiUq18bfSwnl-0">
          <mxGeometry y="180" width="310" height="60" as="geometry" />
        </mxCell>
        <mxCell id="-RJvNgX3KiUq18bfSwnl-8" value="继续循环遍历&amp;nbsp;&lt;span&gt;remainTokens。若为空，则退出循环，整体返回&lt;/span&gt;parentNode&lt;span&gt;&lt;br&gt;。&lt;/span&gt;" style="shape=partialRectangle;html=1;whiteSpace=wrap;connectable=0;overflow=hidden;fillColor=none;top=0;left=0;bottom=0;right=0;strokeColor=#788AA3;fontColor=#46495D;fontFamily=Comic Sans MS;align=center;" vertex="1" parent="-RJvNgX3KiUq18bfSwnl-7">
          <mxGeometry width="310" height="60" as="geometry" />
        </mxCell>
        <mxCell id="-RJvNgX3KiUq18bfSwnl-9" value="" style="shape=table;html=1;whiteSpace=wrap;startSize=0;container=1;collapsible=0;childLayout=tableLayout;fillColor=#B2C9AB;strokeColor=#788AA3;fontColor=#46495D;comic=1;fontFamily=Comic Sans MS;align=center;" vertex="1" parent="IUG3ZgZPdK8sgtfe1htu-1">
          <mxGeometry x="280" y="420" width="310" height="60" as="geometry" />
        </mxCell>
        <mxCell id="-RJvNgX3KiUq18bfSwnl-10" value="" style="shape=partialRectangle;html=1;whiteSpace=wrap;collapsible=0;dropTarget=0;pointerEvents=0;fillColor=none;top=0;left=0;bottom=0;right=0;points=[[0,0.5],[1,0.5]];portConstraint=eastwest;strokeColor=#788AA3;fontColor=#46495D;fontFamily=Comic Sans MS;align=center;" vertex="1" parent="-RJvNgX3KiUq18bfSwnl-9">
          <mxGeometry width="310" height="60" as="geometry" />
        </mxCell>
        <mxCell id="-RJvNgX3KiUq18bfSwnl-11" value="遇到 )，返回节点" style="shape=partialRectangle;html=1;whiteSpace=wrap;connectable=0;overflow=hidden;fillColor=none;top=0;left=0;bottom=0;right=0;strokeColor=#788AA3;fontColor=#46495D;fontFamily=Comic Sans MS;align=center;" vertex="1" parent="-RJvNgX3KiUq18bfSwnl-10">
          <mxGeometry width="310" height="60" as="geometry" />
        </mxCell>
        <mxCell id="-RJvNgX3KiUq18bfSwnl-18" value="" style="shape=table;html=1;whiteSpace=wrap;startSize=0;container=1;collapsible=0;childLayout=tableLayout;fillColor=#B2C9AB;strokeColor=#788AA3;fontColor=#46495D;comic=1;fontFamily=Comic Sans MS;align=center;" vertex="1" parent="IUG3ZgZPdK8sgtfe1htu-1">
          <mxGeometry x="280" y="520" width="310" height="60" as="geometry" />
        </mxCell>
        <mxCell id="-RJvNgX3KiUq18bfSwnl-19" value="" style="shape=partialRectangle;html=1;whiteSpace=wrap;collapsible=0;dropTarget=0;pointerEvents=0;fillColor=none;top=0;left=0;bottom=0;right=0;points=[[0,0.5],[1,0.5]];portConstraint=eastwest;strokeColor=#788AA3;fontColor=#46495D;fontFamily=Comic Sans MS;align=center;" vertex="1" parent="-RJvNgX3KiUq18bfSwnl-18">
          <mxGeometry width="310" height="60" as="geometry" />
        </mxCell>
        <mxCell id="-RJvNgX3KiUq18bfSwnl-20" value="遇到 text，添加到父节点" style="shape=partialRectangle;html=1;whiteSpace=wrap;connectable=0;overflow=hidden;fillColor=none;top=0;left=0;bottom=0;right=0;strokeColor=#788AA3;fontColor=#46495D;fontFamily=Comic Sans MS;align=center;" vertex="1" parent="-RJvNgX3KiUq18bfSwnl-19">
          <mxGeometry width="310" height="60" as="geometry" />
        </mxCell>
        <mxCell id="-RJvNgX3KiUq18bfSwnl-21" value="" style="shape=table;html=1;whiteSpace=wrap;startSize=0;container=1;collapsible=0;childLayout=tableLayout;fillColor=#B2C9AB;strokeColor=#788AA3;fontColor=#46495D;comic=1;fontFamily=Comic Sans MS;align=center;" vertex="1" parent="IUG3ZgZPdK8sgtfe1htu-1">
          <mxGeometry x="280" y="40" width="310" height="60" as="geometry" />
        </mxCell>
        <mxCell id="-RJvNgX3KiUq18bfSwnl-22" value="" style="shape=partialRectangle;html=1;whiteSpace=wrap;collapsible=0;dropTarget=0;pointerEvents=0;fillColor=none;top=0;left=0;bottom=0;right=0;points=[[0,0.5],[1,0.5]];portConstraint=eastwest;strokeColor=#788AA3;fontColor=#46495D;fontFamily=Comic Sans MS;align=center;" vertex="1" parent="-RJvNgX3KiUq18bfSwnl-21">
          <mxGeometry width="310" height="60" as="geometry" />
        </mxCell>
        <mxCell id="-RJvNgX3KiUq18bfSwnl-23" value="初始父节点为 nil" style="shape=partialRectangle;html=1;whiteSpace=wrap;connectable=0;overflow=hidden;fillColor=none;top=0;left=0;bottom=0;right=0;strokeColor=#788AA3;fontColor=#46495D;fontFamily=Comic Sans MS;align=center;" vertex="1" parent="-RJvNgX3KiUq18bfSwnl-22">
          <mxGeometry width="310" height="60" as="geometry" />
        </mxCell>
        <mxCell id="qzS3W-ApIyp-rq3ySZLR-8" value="" style="edgeStyle=orthogonalEdgeStyle;curved=0;rounded=1;sketch=0;orthogonalLoop=1;jettySize=auto;html=1;fontFamily=Comic Sans MS;fontColor=#46495D;strokeColor=#788AA3;fillColor=#B2C9AB;align=center;" edge="1" parent="IUG3ZgZPdK8sgtfe1htu-1" source="qzS3W-ApIyp-rq3ySZLR-0" target="qzS3W-ApIyp-rq3ySZLR-7">
          <mxGeometry relative="1" as="geometry" />
        </mxCell>
        <mxCell id="qzS3W-ApIyp-rq3ySZLR-0" value="parser(tokens, nil)" style="rounded=1;whiteSpace=wrap;html=1;sketch=0;fontFamily=Comic Sans MS;fontColor=#46495D;strokeColor=#788AA3;fillColor=#B2C9AB;align=center;" vertex="1" parent="IUG3ZgZPdK8sgtfe1htu-1">
          <mxGeometry x="40" y="285" width="120" height="50" as="geometry" />
        </mxCell>
        <mxCell id="qzS3W-ApIyp-rq3ySZLR-10" style="edgeStyle=orthogonalEdgeStyle;curved=0;rounded=1;sketch=0;orthogonalLoop=1;jettySize=auto;html=1;entryX=1;entryY=0.5;entryDx=0;entryDy=0;fontFamily=Comic Sans MS;fontColor=#46495D;strokeColor=#788AA3;fillColor=#B2C9AB;align=center;" edge="1" parent="IUG3ZgZPdK8sgtfe1htu-1" source="qzS3W-ApIyp-rq3ySZLR-1" target="-RJvNgX3KiUq18bfSwnl-5">
          <mxGeometry relative="1" as="geometry" />
        </mxCell>
        <mxCell id="qzS3W-ApIyp-rq3ySZLR-1" value="parser(tokens, .List([]))" style="rounded=1;whiteSpace=wrap;html=1;sketch=0;fontFamily=Comic Sans MS;fontColor=#46495D;strokeColor=#788AA3;fillColor=#B2C9AB;align=center;" vertex="1" parent="IUG3ZgZPdK8sgtfe1htu-1">
          <mxGeometry x="800" y="205" width="180" height="50" as="geometry" />
        </mxCell>
        <mxCell id="qzS3W-ApIyp-rq3ySZLR-4" value="递归函数返回" style="text;html=1;align=center;verticalAlign=middle;resizable=0;points=[];autosize=1;strokeColor=none;fontFamily=Comic Sans MS;fontColor=#46495D;" vertex="1" parent="IUG3ZgZPdK8sgtfe1htu-1">
          <mxGeometry x="615" y="260" width="90" height="20" as="geometry" />
        </mxCell>
        <mxCell id="qzS3W-ApIyp-rq3ySZLR-5" style="edgeStyle=orthogonalEdgeStyle;curved=0;rounded=1;sketch=0;orthogonalLoop=1;jettySize=auto;html=1;entryX=0;entryY=0.5;entryDx=0;entryDy=0;fontFamily=Comic Sans MS;fontColor=#46495D;strokeColor=#788AA3;fillColor=#B2C9AB;align=center;" edge="1" parent="IUG3ZgZPdK8sgtfe1htu-1" source="-RJvNgX3KiUq18bfSwnl-3" target="qzS3W-ApIyp-rq3ySZLR-1">
          <mxGeometry relative="1" as="geometry" />
        </mxCell>
        <mxCell id="qzS3W-ApIyp-rq3ySZLR-6" value="递归调用" style="text;html=1;align=center;verticalAlign=middle;resizable=0;points=[];autosize=1;strokeColor=none;fontFamily=Comic Sans MS;fontColor=#46495D;" vertex="1" parent="IUG3ZgZPdK8sgtfe1htu-1">
          <mxGeometry x="620" y="200" width="60" height="20" as="geometry" />
        </mxCell>
        <mxCell id="qzS3W-ApIyp-rq3ySZLR-7" value="" style="shape=curlyBracket;whiteSpace=wrap;html=1;rounded=1;sketch=0;fontFamily=Comic Sans MS;fontColor=#46495D;strokeColor=#788AA3;fillColor=none;align=center;" vertex="1" parent="IUG3ZgZPdK8sgtfe1htu-1">
          <mxGeometry x="230" y="70" width="20" height="480" as="geometry" />
        </mxCell>
        <mxCell id="qzS3W-ApIyp-rq3ySZLR-9" value="如果 tokens 中嵌套有 (，那么继续递归调用，逐级返回" style="text;html=1;align=center;verticalAlign=middle;resizable=0;points=[];autosize=1;strokeColor=#ae4132;fontFamily=Comic Sans MS;fillColor=#fad9d5;" vertex="1" parent="IUG3ZgZPdK8sgtfe1htu-1">
          <mxGeometry x="735" y="170" width="310" height="20" as="geometry" />
        </mxCell>
        <mxCell id="SZWgoYWrUdFnCD6Rpcko-0" value="parser(tokens, parentNode) -&amp;gt; (remainTokens, node)" style="rounded=1;whiteSpace=wrap;html=1;sketch=0;fontFamily=Comic Sans MS;strokeColor=#0e8088;fillColor=#b0e3e6;align=center;" vertex="1" parent="IUG3ZgZPdK8sgtfe1htu-1">
          <mxGeometry x="40" y="-80" width="235" height="50" as="geometry" />
        </mxCell>
        <mxCell id="SZWgoYWrUdFnCD6Rpcko-2" value="解析方法定义，返回剩余 token + 节点" style="text;html=1;align=center;verticalAlign=middle;resizable=0;points=[];autosize=1;strokeColor=none;fontFamily=Comic Sans MS;" vertex="1" parent="IUG3ZgZPdK8sgtfe1htu-1">
          <mxGeometry x="47.5" y="-120" width="220" height="20" as="geometry" />
        </mxCell>
      </root>
    </mxGraphModel>
  </diagram>
  <diagram id="I4y1xsMjU2EsVGipaCwk" name="cond-expr">
    <mxGraphModel dx="1034" dy="593" grid="1" gridSize="10" guides="1" tooltips="1" connect="1" arrows="1" fold="1" page="1" pageScale="1" pageWidth="827" pageHeight="1169" math="0" shadow="0">
      <root>
        <mxCell id="NyIZKkRW4BIxMnyziah--0" />
        <mxCell id="NyIZKkRW4BIxMnyziah--1" parent="NyIZKkRW4BIxMnyziah--0" />
        <mxCell id="NyIZKkRW4BIxMnyziah--2" value="&lt;span&gt;(cond ((atom (quote A)) (quote B)) ((quote true) (quote C)))&lt;/span&gt;" style="text;html=1;align=center;verticalAlign=middle;resizable=0;points=[];autosize=1;strokeColor=#b46504;fontFamily=Comic Sans MS;comic=1;fillColor=#fad7ac;" vertex="1" parent="NyIZKkRW4BIxMnyziah--1">
          <mxGeometry x="170" width="340" height="20" as="geometry" />
        </mxCell>
        <mxCell id="NyIZKkRW4BIxMnyziah--42" style="edgeStyle=orthogonalEdgeStyle;curved=0;rounded=1;sketch=0;orthogonalLoop=1;jettySize=auto;html=1;fontFamily=Comic Sans MS;fontColor=#46495D;strokeColor=#788AA3;fillColor=#B2C9AB;" edge="1" parent="NyIZKkRW4BIxMnyziah--1" source="NyIZKkRW4BIxMnyziah--4">
          <mxGeometry relative="1" as="geometry">
            <mxPoint x="240" y="290" as="targetPoint" />
          </mxGeometry>
        </mxCell>
        <mxCell id="NyIZKkRW4BIxMnyziah--4" value="" style="shape=table;html=1;whiteSpace=wrap;startSize=0;container=1;collapsible=0;childLayout=tableLayout;fillColor=#B2C9AB;strokeColor=#788AA3;fontColor=#46495D;comic=1;fontFamily=Comic Sans MS;" vertex="1" parent="NyIZKkRW4BIxMnyziah--1">
          <mxGeometry x="100" y="180" width="480" height="40" as="geometry" />
        </mxCell>
        <mxCell id="NyIZKkRW4BIxMnyziah--5" value="" style="shape=partialRectangle;html=1;whiteSpace=wrap;collapsible=0;dropTarget=0;pointerEvents=0;fillColor=none;top=0;left=0;bottom=0;right=0;points=[[0,0.5],[1,0.5]];portConstraint=eastwest;strokeColor=#788AA3;fontColor=#46495D;comic=1;fontFamily=Comic Sans MS;" vertex="1" parent="NyIZKkRW4BIxMnyziah--4">
          <mxGeometry width="480" height="40" as="geometry" />
        </mxCell>
        <mxCell id="NyIZKkRW4BIxMnyziah--6" value=".Atom(cond)" style="shape=partialRectangle;html=1;whiteSpace=wrap;connectable=0;overflow=hidden;fillColor=none;top=0;left=0;bottom=0;right=0;strokeColor=#788AA3;fontColor=#46495D;comic=1;fontFamily=Comic Sans MS;" vertex="1" parent="NyIZKkRW4BIxMnyziah--5">
          <mxGeometry width="160" height="40" as="geometry" />
        </mxCell>
        <mxCell id="NyIZKkRW4BIxMnyziah--7" value=".List" style="shape=partialRectangle;html=1;whiteSpace=wrap;connectable=0;overflow=hidden;fillColor=none;top=0;left=0;bottom=0;right=0;strokeColor=#788AA3;fontColor=#46495D;comic=1;fontFamily=Comic Sans MS;" vertex="1" parent="NyIZKkRW4BIxMnyziah--5">
          <mxGeometry x="160" width="160" height="40" as="geometry" />
        </mxCell>
        <mxCell id="NyIZKkRW4BIxMnyziah--8" value=".List" style="shape=partialRectangle;html=1;whiteSpace=wrap;connectable=0;overflow=hidden;fillColor=none;top=0;left=0;bottom=0;right=0;strokeColor=#788AA3;fontColor=#46495D;comic=1;fontFamily=Comic Sans MS;" vertex="1" parent="NyIZKkRW4BIxMnyziah--5">
          <mxGeometry x="320" width="160" height="40" as="geometry" />
        </mxCell>
        <mxCell id="NyIZKkRW4BIxMnyziah--14" value="" style="shape=table;html=1;whiteSpace=wrap;startSize=0;container=1;collapsible=0;childLayout=tableLayout;fillColor=#B2C9AB;strokeColor=#788AA3;fontColor=#46495D;comic=1;fontFamily=Comic Sans MS;" vertex="1" parent="NyIZKkRW4BIxMnyziah--1">
          <mxGeometry x="150" y="300" width="190" height="40" as="geometry" />
        </mxCell>
        <mxCell id="NyIZKkRW4BIxMnyziah--15" value="" style="shape=partialRectangle;html=1;whiteSpace=wrap;collapsible=0;dropTarget=0;pointerEvents=0;fillColor=none;top=0;left=0;bottom=0;right=0;points=[[0,0.5],[1,0.5]];portConstraint=eastwest;strokeColor=#788AA3;fontColor=#46495D;comic=1;fontFamily=Comic Sans MS;" vertex="1" parent="NyIZKkRW4BIxMnyziah--14">
          <mxGeometry width="190" height="40" as="geometry" />
        </mxCell>
        <mxCell id="NyIZKkRW4BIxMnyziah--16" value=".List" style="shape=partialRectangle;html=1;whiteSpace=wrap;connectable=0;overflow=hidden;fillColor=none;top=0;left=0;bottom=0;right=0;strokeColor=#788AA3;fontColor=#46495D;comic=1;fontFamily=Comic Sans MS;" vertex="1" parent="NyIZKkRW4BIxMnyziah--15">
          <mxGeometry width="95" height="40" as="geometry" />
        </mxCell>
        <mxCell id="NyIZKkRW4BIxMnyziah--17" value=".List" style="shape=partialRectangle;html=1;whiteSpace=wrap;connectable=0;overflow=hidden;fillColor=none;top=0;left=0;bottom=0;right=0;strokeColor=#788AA3;fontColor=#46495D;comic=1;fontFamily=Comic Sans MS;" vertex="1" parent="NyIZKkRW4BIxMnyziah--15">
          <mxGeometry x="95" width="95" height="40" as="geometry" />
        </mxCell>
        <mxCell id="NyIZKkRW4BIxMnyziah--18" value="" style="shape=table;html=1;whiteSpace=wrap;startSize=0;container=1;collapsible=0;childLayout=tableLayout;fillColor=#B2C9AB;strokeColor=#788AA3;fontColor=#46495D;comic=1;fontFamily=Comic Sans MS;" vertex="1" parent="NyIZKkRW4BIxMnyziah--1">
          <mxGeometry x="600" y="300" width="210" height="40" as="geometry" />
        </mxCell>
        <mxCell id="NyIZKkRW4BIxMnyziah--19" value="" style="shape=partialRectangle;html=1;whiteSpace=wrap;collapsible=0;dropTarget=0;pointerEvents=0;fillColor=none;top=0;left=0;bottom=0;right=0;points=[[0,0.5],[1,0.5]];portConstraint=eastwest;strokeColor=#788AA3;fontColor=#46495D;comic=1;fontFamily=Comic Sans MS;" vertex="1" parent="NyIZKkRW4BIxMnyziah--18">
          <mxGeometry width="210" height="40" as="geometry" />
        </mxCell>
        <mxCell id="NyIZKkRW4BIxMnyziah--20" value=".List" style="shape=partialRectangle;html=1;whiteSpace=wrap;connectable=0;overflow=hidden;fillColor=none;top=0;left=0;bottom=0;right=0;strokeColor=#788AA3;fontColor=#46495D;comic=1;fontFamily=Comic Sans MS;" vertex="1" parent="NyIZKkRW4BIxMnyziah--19">
          <mxGeometry width="105" height="40" as="geometry" />
        </mxCell>
        <mxCell id="NyIZKkRW4BIxMnyziah--21" value=".List" style="shape=partialRectangle;html=1;whiteSpace=wrap;connectable=0;overflow=hidden;fillColor=none;top=0;left=0;bottom=0;right=0;strokeColor=#788AA3;fontColor=#46495D;comic=1;fontFamily=Comic Sans MS;" vertex="1" parent="NyIZKkRW4BIxMnyziah--19">
          <mxGeometry x="105" width="105" height="40" as="geometry" />
        </mxCell>
        <mxCell id="NyIZKkRW4BIxMnyziah--22" value="" style="shape=table;html=1;whiteSpace=wrap;startSize=0;container=1;collapsible=0;childLayout=tableLayout;fillColor=#fad7ac;strokeColor=#b46504;comic=1;fontFamily=Comic Sans MS;" vertex="1" parent="NyIZKkRW4BIxMnyziah--1">
          <mxGeometry x="40" y="400" width="180" height="40" as="geometry" />
        </mxCell>
        <mxCell id="NyIZKkRW4BIxMnyziah--23" value="" style="shape=partialRectangle;html=1;whiteSpace=wrap;collapsible=0;dropTarget=0;pointerEvents=0;fillColor=none;top=0;left=0;bottom=0;right=0;points=[[0,0.5],[1,0.5]];portConstraint=eastwest;strokeColor=#788AA3;fontColor=#46495D;comic=1;fontFamily=Comic Sans MS;" vertex="1" parent="NyIZKkRW4BIxMnyziah--22">
          <mxGeometry width="180" height="40" as="geometry" />
        </mxCell>
        <mxCell id="NyIZKkRW4BIxMnyziah--24" value=".Atom(atom)" style="shape=partialRectangle;html=1;whiteSpace=wrap;connectable=0;overflow=hidden;fillColor=none;top=0;left=0;bottom=0;right=0;strokeColor=#788AA3;fontColor=#46495D;comic=1;fontFamily=Comic Sans MS;" vertex="1" parent="NyIZKkRW4BIxMnyziah--23">
          <mxGeometry width="90" height="40" as="geometry" />
        </mxCell>
        <mxCell id="NyIZKkRW4BIxMnyziah--25" value=".List" style="shape=partialRectangle;html=1;whiteSpace=wrap;connectable=0;overflow=hidden;fillColor=none;top=0;left=0;bottom=0;right=0;strokeColor=#788AA3;fontColor=#46495D;comic=1;fontFamily=Comic Sans MS;" vertex="1" parent="NyIZKkRW4BIxMnyziah--23">
          <mxGeometry x="90" width="90" height="40" as="geometry" />
        </mxCell>
        <mxCell id="NyIZKkRW4BIxMnyziah--26" value="" style="shape=table;html=1;whiteSpace=wrap;startSize=0;container=1;collapsible=0;childLayout=tableLayout;fillColor=#fad9d5;strokeColor=#ae4132;comic=1;fontFamily=Comic Sans MS;" vertex="1" parent="NyIZKkRW4BIxMnyziah--1">
          <mxGeometry x="270" y="400" width="170" height="40" as="geometry" />
        </mxCell>
        <mxCell id="NyIZKkRW4BIxMnyziah--27" value="" style="shape=partialRectangle;html=1;whiteSpace=wrap;collapsible=0;dropTarget=0;pointerEvents=0;fillColor=none;top=0;left=0;bottom=0;right=0;points=[[0,0.5],[1,0.5]];portConstraint=eastwest;strokeColor=#788AA3;fontColor=#46495D;comic=1;fontFamily=Comic Sans MS;" vertex="1" parent="NyIZKkRW4BIxMnyziah--26">
          <mxGeometry width="170" height="40" as="geometry" />
        </mxCell>
        <mxCell id="NyIZKkRW4BIxMnyziah--28" value=".Atom(quote)" style="shape=partialRectangle;html=1;whiteSpace=wrap;connectable=0;overflow=hidden;fillColor=none;top=0;left=0;bottom=0;right=0;strokeColor=#788AA3;fontColor=#46495D;comic=1;fontFamily=Comic Sans MS;" vertex="1" parent="NyIZKkRW4BIxMnyziah--27">
          <mxGeometry width="85" height="40" as="geometry" />
        </mxCell>
        <mxCell id="NyIZKkRW4BIxMnyziah--29" value=".Atom(B)" style="shape=partialRectangle;html=1;whiteSpace=wrap;connectable=0;overflow=hidden;fillColor=none;top=0;left=0;bottom=0;right=0;strokeColor=#788AA3;fontColor=#46495D;comic=1;fontFamily=Comic Sans MS;" vertex="1" parent="NyIZKkRW4BIxMnyziah--27">
          <mxGeometry x="85" width="85" height="40" as="geometry" />
        </mxCell>
        <mxCell id="NyIZKkRW4BIxMnyziah--30" value="" style="shape=table;html=1;whiteSpace=wrap;startSize=0;container=1;collapsible=0;childLayout=tableLayout;fillColor=#fad7ac;strokeColor=#b46504;comic=1;fontFamily=Comic Sans MS;" vertex="1" parent="NyIZKkRW4BIxMnyziah--1">
          <mxGeometry x="510" y="400" width="190" height="40" as="geometry" />
        </mxCell>
        <mxCell id="NyIZKkRW4BIxMnyziah--31" value="" style="shape=partialRectangle;html=1;whiteSpace=wrap;collapsible=0;dropTarget=0;pointerEvents=0;fillColor=none;top=0;left=0;bottom=0;right=0;points=[[0,0.5],[1,0.5]];portConstraint=eastwest;strokeColor=#788AA3;fontColor=#46495D;comic=1;fontFamily=Comic Sans MS;" vertex="1" parent="NyIZKkRW4BIxMnyziah--30">
          <mxGeometry width="190" height="40" as="geometry" />
        </mxCell>
        <mxCell id="NyIZKkRW4BIxMnyziah--32" value=".Atom(quote)" style="shape=partialRectangle;html=1;whiteSpace=wrap;connectable=0;overflow=hidden;fillColor=none;top=0;left=0;bottom=0;right=0;strokeColor=#788AA3;fontColor=#46495D;comic=1;fontFamily=Comic Sans MS;" vertex="1" parent="NyIZKkRW4BIxMnyziah--31">
          <mxGeometry width="95" height="40" as="geometry" />
        </mxCell>
        <mxCell id="NyIZKkRW4BIxMnyziah--33" value=".Atom(true)" style="shape=partialRectangle;html=1;whiteSpace=wrap;connectable=0;overflow=hidden;fillColor=none;top=0;left=0;bottom=0;right=0;strokeColor=#788AA3;fontColor=#46495D;comic=1;fontFamily=Comic Sans MS;" vertex="1" parent="NyIZKkRW4BIxMnyziah--31">
          <mxGeometry x="95" width="95" height="40" as="geometry" />
        </mxCell>
        <mxCell id="NyIZKkRW4BIxMnyziah--34" value="" style="shape=table;html=1;whiteSpace=wrap;startSize=0;container=1;collapsible=0;childLayout=tableLayout;fillColor=#fad9d5;strokeColor=#ae4132;comic=1;fontFamily=Comic Sans MS;" vertex="1" parent="NyIZKkRW4BIxMnyziah--1">
          <mxGeometry x="750" y="400" width="180" height="40" as="geometry" />
        </mxCell>
        <mxCell id="NyIZKkRW4BIxMnyziah--35" value="" style="shape=partialRectangle;html=1;whiteSpace=wrap;collapsible=0;dropTarget=0;pointerEvents=0;fillColor=none;top=0;left=0;bottom=0;right=0;points=[[0,0.5],[1,0.5]];portConstraint=eastwest;strokeColor=#788AA3;fontColor=#46495D;comic=1;fontFamily=Comic Sans MS;" vertex="1" parent="NyIZKkRW4BIxMnyziah--34">
          <mxGeometry width="180" height="40" as="geometry" />
        </mxCell>
        <mxCell id="NyIZKkRW4BIxMnyziah--36" value=".Atom(quote)" style="shape=partialRectangle;html=1;whiteSpace=wrap;connectable=0;overflow=hidden;fillColor=none;top=0;left=0;bottom=0;right=0;strokeColor=#788AA3;fontColor=#46495D;comic=1;fontFamily=Comic Sans MS;" vertex="1" parent="NyIZKkRW4BIxMnyziah--35">
          <mxGeometry width="90" height="40" as="geometry" />
        </mxCell>
        <mxCell id="NyIZKkRW4BIxMnyziah--37" value=".Atom(C)" style="shape=partialRectangle;html=1;whiteSpace=wrap;connectable=0;overflow=hidden;fillColor=none;top=0;left=0;bottom=0;right=0;strokeColor=#788AA3;fontColor=#46495D;comic=1;fontFamily=Comic Sans MS;" vertex="1" parent="NyIZKkRW4BIxMnyziah--35">
          <mxGeometry x="90" width="90" height="40" as="geometry" />
        </mxCell>
        <mxCell id="NyIZKkRW4BIxMnyziah--38" value="" style="shape=table;html=1;whiteSpace=wrap;startSize=0;container=1;collapsible=0;childLayout=tableLayout;fillColor=#B2C9AB;strokeColor=#788AA3;fontColor=#46495D;comic=1;fontFamily=Comic Sans MS;" vertex="1" parent="NyIZKkRW4BIxMnyziah--1">
          <mxGeometry x="110" y="500" width="170" height="40" as="geometry" />
        </mxCell>
        <mxCell id="NyIZKkRW4BIxMnyziah--39" value="" style="shape=partialRectangle;html=1;whiteSpace=wrap;collapsible=0;dropTarget=0;pointerEvents=0;fillColor=none;top=0;left=0;bottom=0;right=0;points=[[0,0.5],[1,0.5]];portConstraint=eastwest;strokeColor=#788AA3;fontColor=#46495D;comic=1;fontFamily=Comic Sans MS;" vertex="1" parent="NyIZKkRW4BIxMnyziah--38">
          <mxGeometry width="170" height="40" as="geometry" />
        </mxCell>
        <mxCell id="NyIZKkRW4BIxMnyziah--40" value=".Atom(quote)" style="shape=partialRectangle;html=1;whiteSpace=wrap;connectable=0;overflow=hidden;fillColor=none;top=0;left=0;bottom=0;right=0;strokeColor=#788AA3;fontColor=#46495D;comic=1;fontFamily=Comic Sans MS;" vertex="1" parent="NyIZKkRW4BIxMnyziah--39">
          <mxGeometry width="85" height="40" as="geometry" />
        </mxCell>
        <mxCell id="NyIZKkRW4BIxMnyziah--41" value=".Atom(A)" style="shape=partialRectangle;html=1;whiteSpace=wrap;connectable=0;overflow=hidden;fillColor=none;top=0;left=0;bottom=0;right=0;strokeColor=#788AA3;fontColor=#46495D;comic=1;fontFamily=Comic Sans MS;" vertex="1" parent="NyIZKkRW4BIxMnyziah--39">
          <mxGeometry x="85" width="85" height="40" as="geometry" />
        </mxCell>
        <mxCell id="NyIZKkRW4BIxMnyziah--43" style="edgeStyle=orthogonalEdgeStyle;curved=0;rounded=1;sketch=0;orthogonalLoop=1;jettySize=auto;html=1;fontFamily=Comic Sans MS;fontColor=#46495D;strokeColor=#788AA3;fillColor=#B2C9AB;exitX=0.835;exitY=1.017;exitDx=0;exitDy=0;exitPerimeter=0;" edge="1" parent="NyIZKkRW4BIxMnyziah--1" source="NyIZKkRW4BIxMnyziah--5">
          <mxGeometry relative="1" as="geometry">
            <mxPoint x="710" y="290" as="targetPoint" />
            <mxPoint x="550" y="250" as="sourcePoint" />
          </mxGeometry>
        </mxCell>
        <mxCell id="NyIZKkRW4BIxMnyziah--44" style="edgeStyle=orthogonalEdgeStyle;curved=0;rounded=1;sketch=0;orthogonalLoop=1;jettySize=auto;html=1;fontFamily=Comic Sans MS;fontColor=#46495D;strokeColor=#788AA3;fillColor=#B2C9AB;exitX=0.221;exitY=1.025;exitDx=0;exitDy=0;exitPerimeter=0;" edge="1" parent="NyIZKkRW4BIxMnyziah--1" source="NyIZKkRW4BIxMnyziah--15">
          <mxGeometry relative="1" as="geometry">
            <mxPoint x="130" y="390" as="targetPoint" />
            <mxPoint x="230" y="350" as="sourcePoint" />
          </mxGeometry>
        </mxCell>
        <mxCell id="NyIZKkRW4BIxMnyziah--46" style="edgeStyle=orthogonalEdgeStyle;curved=0;rounded=1;sketch=0;orthogonalLoop=1;jettySize=auto;html=1;fontFamily=Comic Sans MS;fontColor=#46495D;strokeColor=#788AA3;fillColor=#B2C9AB;exitX=0.753;exitY=1.025;exitDx=0;exitDy=0;exitPerimeter=0;" edge="1" parent="NyIZKkRW4BIxMnyziah--1" source="NyIZKkRW4BIxMnyziah--15">
          <mxGeometry relative="1" as="geometry">
            <mxPoint x="360" y="390" as="targetPoint" />
            <mxPoint x="361.99" y="341" as="sourcePoint" />
          </mxGeometry>
        </mxCell>
        <mxCell id="NyIZKkRW4BIxMnyziah--47" style="edgeStyle=orthogonalEdgeStyle;curved=0;rounded=1;sketch=0;orthogonalLoop=1;jettySize=auto;html=1;fontFamily=Comic Sans MS;fontColor=#46495D;strokeColor=#788AA3;fillColor=#B2C9AB;exitX=0.762;exitY=1;exitDx=0;exitDy=0;exitPerimeter=0;" edge="1" parent="NyIZKkRW4BIxMnyziah--1" source="NyIZKkRW4BIxMnyziah--19">
          <mxGeometry relative="1" as="geometry">
            <mxPoint x="837" y="390" as="targetPoint" />
            <mxPoint x="770" y="351" as="sourcePoint" />
          </mxGeometry>
        </mxCell>
        <mxCell id="NyIZKkRW4BIxMnyziah--49" style="edgeStyle=orthogonalEdgeStyle;curved=0;rounded=1;sketch=0;orthogonalLoop=1;jettySize=auto;html=1;fontFamily=Comic Sans MS;fontColor=#46495D;strokeColor=#788AA3;fillColor=#B2C9AB;exitX=0.221;exitY=1.025;exitDx=0;exitDy=0;exitPerimeter=0;" edge="1" parent="NyIZKkRW4BIxMnyziah--1">
          <mxGeometry relative="1" as="geometry">
            <mxPoint x="600" y="390" as="targetPoint" />
            <mxPoint x="661.99" y="340" as="sourcePoint" />
            <Array as="points">
              <mxPoint x="662" y="360" />
              <mxPoint x="600" y="360" />
            </Array>
          </mxGeometry>
        </mxCell>
        <mxCell id="NyIZKkRW4BIxMnyziah--50" style="edgeStyle=orthogonalEdgeStyle;curved=0;rounded=1;sketch=0;orthogonalLoop=1;jettySize=auto;html=1;fontFamily=Comic Sans MS;fontColor=#46495D;strokeColor=#788AA3;fillColor=#B2C9AB;exitX=0.756;exitY=1;exitDx=0;exitDy=0;exitPerimeter=0;" edge="1" parent="NyIZKkRW4BIxMnyziah--1" source="NyIZKkRW4BIxMnyziah--23">
          <mxGeometry relative="1" as="geometry">
            <mxPoint x="197" y="490" as="targetPoint" />
            <mxPoint x="129.99999999999994" y="451" as="sourcePoint" />
          </mxGeometry>
        </mxCell>
        <mxCell id="NyIZKkRW4BIxMnyziah--52" style="edgeStyle=orthogonalEdgeStyle;curved=0;rounded=1;sketch=0;orthogonalLoop=1;jettySize=auto;html=1;entryX=0.469;entryY=-0.017;entryDx=0;entryDy=0;entryPerimeter=0;fontFamily=Comic Sans MS;fontColor=#46495D;strokeColor=#788AA3;fillColor=#B2C9AB;" edge="1" parent="NyIZKkRW4BIxMnyziah--1" source="NyIZKkRW4BIxMnyziah--51" target="NyIZKkRW4BIxMnyziah--5">
          <mxGeometry relative="1" as="geometry" />
        </mxCell>
        <mxCell id="NyIZKkRW4BIxMnyziah--51" value=".List" style="rounded=1;whiteSpace=wrap;html=1;comic=1;sketch=0;fontFamily=Comic Sans MS;fontColor=#46495D;strokeColor=#788AA3;fillColor=#B2C9AB;" vertex="1" parent="NyIZKkRW4BIxMnyziah--1">
          <mxGeometry x="280" y="70" width="120" height="40" as="geometry" />
        </mxCell>
        <mxCell id="NyIZKkRW4BIxMnyziah--53" value="p" style="text;html=1;align=center;verticalAlign=middle;resizable=0;points=[];autosize=1;strokeColor=#b46504;fontFamily=Comic Sans MS;fillColor=#fad7ac;" vertex="1" parent="NyIZKkRW4BIxMnyziah--1">
          <mxGeometry x="10" y="410" width="20" height="20" as="geometry" />
        </mxCell>
        <mxCell id="NyIZKkRW4BIxMnyziah--54" value="e" style="text;html=1;align=center;verticalAlign=middle;resizable=0;points=[];autosize=1;strokeColor=#ae4132;fontFamily=Comic Sans MS;fillColor=#fad9d5;" vertex="1" parent="NyIZKkRW4BIxMnyziah--1">
          <mxGeometry x="240" y="410" width="20" height="20" as="geometry" />
        </mxCell>
        <mxCell id="NyIZKkRW4BIxMnyziah--55" value="p" style="text;html=1;align=center;verticalAlign=middle;resizable=0;points=[];autosize=1;strokeColor=#b46504;fontFamily=Comic Sans MS;fillColor=#fad7ac;" vertex="1" parent="NyIZKkRW4BIxMnyziah--1">
          <mxGeometry x="480" y="410" width="20" height="20" as="geometry" />
        </mxCell>
        <mxCell id="NyIZKkRW4BIxMnyziah--56" value="e" style="text;html=1;align=center;verticalAlign=middle;resizable=0;points=[];autosize=1;strokeColor=#ae4132;fontFamily=Comic Sans MS;fillColor=#fad9d5;" vertex="1" parent="NyIZKkRW4BIxMnyziah--1">
          <mxGeometry x="720" y="410" width="20" height="20" as="geometry" />
        </mxCell>
      </root>
    </mxGraphModel>
  </diagram>
  <diagram name="defun-expr" id="p-LEvuJiLZnJpDTj0HLW">
    <mxGraphModel dx="1034" dy="593" grid="1" gridSize="10" guides="1" tooltips="1" connect="1" arrows="1" fold="1" page="1" pageScale="1" pageWidth="827" pageHeight="1169" math="0" shadow="0">
      <root>
        <mxCell id="jrQexc0jOcobXFZHYx1S-0" />
        <mxCell id="jrQexc0jOcobXFZHYx1S-1" parent="jrQexc0jOcobXFZHYx1S-0" />
        <mxCell id="jrQexc0jOcobXFZHYx1S-2" value="&lt;span&gt;(defun test (x) (car x))&lt;/span&gt;" style="text;html=1;align=center;verticalAlign=middle;resizable=0;points=[];autosize=1;strokeColor=#b46504;fontFamily=Comic Sans MS;comic=1;fillColor=#fad7ac;" parent="jrQexc0jOcobXFZHYx1S-1" vertex="1">
          <mxGeometry x="350" width="140" height="20" as="geometry" />
        </mxCell>
        <mxCell id="jrQexc0jOcobXFZHYx1S-3" style="edgeStyle=orthogonalEdgeStyle;curved=0;rounded=1;sketch=0;orthogonalLoop=1;jettySize=auto;html=1;fontFamily=Comic Sans MS;fontColor=#46495D;strokeColor=#788AA3;fillColor=#B2C9AB;exitX=0.631;exitY=1.025;exitDx=0;exitDy=0;exitPerimeter=0;entryX=0.526;entryY=0;entryDx=0;entryDy=0;entryPerimeter=0;" parent="jrQexc0jOcobXFZHYx1S-1" source="jrQexc0jOcobXFZHYx1S-5" target="jrQexc0jOcobXFZHYx1S-10" edge="1">
          <mxGeometry relative="1" as="geometry">
            <mxPoint x="240" y="290" as="targetPoint" />
          </mxGeometry>
        </mxCell>
        <mxCell id="jrQexc0jOcobXFZHYx1S-4" value="" style="shape=table;html=1;whiteSpace=wrap;startSize=0;container=1;collapsible=0;childLayout=tableLayout;fillColor=#B2C9AB;strokeColor=#788AA3;fontColor=#46495D;comic=1;fontFamily=Comic Sans MS;" parent="jrQexc0jOcobXFZHYx1S-1" vertex="1">
          <mxGeometry x="100" y="180" width="640" height="40" as="geometry" />
        </mxCell>
        <mxCell id="jrQexc0jOcobXFZHYx1S-5" value="" style="shape=partialRectangle;html=1;whiteSpace=wrap;collapsible=0;dropTarget=0;pointerEvents=0;fillColor=none;top=0;left=0;bottom=0;right=0;points=[[0,0.5],[1,0.5]];portConstraint=eastwest;strokeColor=#788AA3;fontColor=#46495D;comic=1;fontFamily=Comic Sans MS;" parent="jrQexc0jOcobXFZHYx1S-4" vertex="1">
          <mxGeometry width="640" height="40" as="geometry" />
        </mxCell>
        <mxCell id="jrQexc0jOcobXFZHYx1S-6" value=".Atom(defun)" style="shape=partialRectangle;html=1;whiteSpace=wrap;connectable=0;overflow=hidden;fillColor=none;top=0;left=0;bottom=0;right=0;strokeColor=#788AA3;fontColor=#46495D;comic=1;fontFamily=Comic Sans MS;" parent="jrQexc0jOcobXFZHYx1S-5" vertex="1">
          <mxGeometry width="160" height="40" as="geometry" />
        </mxCell>
        <mxCell id="jrQexc0jOcobXFZHYx1S-7" value=".Atom(test)" style="shape=partialRectangle;html=1;whiteSpace=wrap;connectable=0;overflow=hidden;fillColor=none;top=0;left=0;bottom=0;right=0;strokeColor=#788AA3;fontColor=#46495D;comic=1;fontFamily=Comic Sans MS;" parent="jrQexc0jOcobXFZHYx1S-5" vertex="1">
          <mxGeometry x="160" width="160" height="40" as="geometry" />
        </mxCell>
        <mxCell id="jrQexc0jOcobXFZHYx1S-8" value=".List" style="shape=partialRectangle;html=1;whiteSpace=wrap;connectable=0;overflow=hidden;fillColor=none;top=0;left=0;bottom=0;right=0;strokeColor=#788AA3;fontColor=#46495D;comic=1;fontFamily=Comic Sans MS;" parent="jrQexc0jOcobXFZHYx1S-5" vertex="1">
          <mxGeometry x="320" width="160" height="40" as="geometry" />
        </mxCell>
        <mxCell id="jrQexc0jOcobXFZHYx1S-57" value="&lt;span&gt;.List&lt;/span&gt;" style="shape=partialRectangle;html=1;whiteSpace=wrap;connectable=0;overflow=hidden;fillColor=none;top=0;left=0;bottom=0;right=0;strokeColor=#788AA3;fontColor=#46495D;comic=1;fontFamily=Comic Sans MS;" parent="jrQexc0jOcobXFZHYx1S-5" vertex="1">
          <mxGeometry x="480" width="160" height="40" as="geometry" />
        </mxCell>
        <mxCell id="jrQexc0jOcobXFZHYx1S-9" value="" style="shape=table;html=1;whiteSpace=wrap;startSize=0;container=1;collapsible=0;childLayout=tableLayout;fillColor=#B2C9AB;strokeColor=#788AA3;fontColor=#46495D;comic=1;fontFamily=Comic Sans MS;" parent="jrQexc0jOcobXFZHYx1S-1" vertex="1">
          <mxGeometry x="440" y="300" width="95" height="40" as="geometry" />
        </mxCell>
        <mxCell id="jrQexc0jOcobXFZHYx1S-10" value="" style="shape=partialRectangle;html=1;whiteSpace=wrap;collapsible=0;dropTarget=0;pointerEvents=0;fillColor=none;top=0;left=0;bottom=0;right=0;points=[[0,0.5],[1,0.5]];portConstraint=eastwest;strokeColor=#788AA3;fontColor=#46495D;comic=1;fontFamily=Comic Sans MS;" parent="jrQexc0jOcobXFZHYx1S-9" vertex="1">
          <mxGeometry width="95" height="40" as="geometry" />
        </mxCell>
        <mxCell id="jrQexc0jOcobXFZHYx1S-11" value=".Atom(x)" style="shape=partialRectangle;html=1;whiteSpace=wrap;connectable=0;overflow=hidden;fillColor=none;top=0;left=0;bottom=0;right=0;strokeColor=#788AA3;fontColor=#46495D;comic=1;fontFamily=Comic Sans MS;" parent="jrQexc0jOcobXFZHYx1S-10" vertex="1">
          <mxGeometry width="95" height="40" as="geometry" />
        </mxCell>
        <mxCell id="jrQexc0jOcobXFZHYx1S-13" value="" style="shape=table;html=1;whiteSpace=wrap;startSize=0;container=1;collapsible=0;childLayout=tableLayout;fillColor=#B2C9AB;strokeColor=#788AA3;fontColor=#46495D;comic=1;fontFamily=Comic Sans MS;" parent="jrQexc0jOcobXFZHYx1S-1" vertex="1">
          <mxGeometry x="600" y="300" width="210" height="40" as="geometry" />
        </mxCell>
        <mxCell id="jrQexc0jOcobXFZHYx1S-14" value="" style="shape=partialRectangle;html=1;whiteSpace=wrap;collapsible=0;dropTarget=0;pointerEvents=0;fillColor=none;top=0;left=0;bottom=0;right=0;points=[[0,0.5],[1,0.5]];portConstraint=eastwest;strokeColor=#788AA3;fontColor=#46495D;comic=1;fontFamily=Comic Sans MS;" parent="jrQexc0jOcobXFZHYx1S-13" vertex="1">
          <mxGeometry width="210" height="40" as="geometry" />
        </mxCell>
        <mxCell id="jrQexc0jOcobXFZHYx1S-15" value=".Atom(car)" style="shape=partialRectangle;html=1;whiteSpace=wrap;connectable=0;overflow=hidden;fillColor=none;top=0;left=0;bottom=0;right=0;strokeColor=#788AA3;fontColor=#46495D;comic=1;fontFamily=Comic Sans MS;" parent="jrQexc0jOcobXFZHYx1S-14" vertex="1">
          <mxGeometry width="105" height="40" as="geometry" />
        </mxCell>
        <mxCell id="jrQexc0jOcobXFZHYx1S-16" value="&lt;span&gt;.Atom(x)&lt;/span&gt;" style="shape=partialRectangle;html=1;whiteSpace=wrap;connectable=0;overflow=hidden;fillColor=none;top=0;left=0;bottom=0;right=0;strokeColor=#788AA3;fontColor=#46495D;comic=1;fontFamily=Comic Sans MS;" parent="jrQexc0jOcobXFZHYx1S-14" vertex="1">
          <mxGeometry x="105" width="105" height="40" as="geometry" />
        </mxCell>
        <mxCell id="jrQexc0jOcobXFZHYx1S-37" style="edgeStyle=orthogonalEdgeStyle;curved=0;rounded=1;sketch=0;orthogonalLoop=1;jettySize=auto;html=1;fontFamily=Comic Sans MS;fontColor=#46495D;strokeColor=#788AA3;fillColor=#B2C9AB;entryX=0.514;entryY=0.025;entryDx=0;entryDy=0;entryPerimeter=0;" parent="jrQexc0jOcobXFZHYx1S-1" target="jrQexc0jOcobXFZHYx1S-14" edge="1">
          <mxGeometry relative="1" as="geometry">
            <mxPoint x="710" y="290" as="targetPoint" />
            <mxPoint x="660" y="221" as="sourcePoint" />
          </mxGeometry>
        </mxCell>
        <mxCell id="jrQexc0jOcobXFZHYx1S-43" style="edgeStyle=orthogonalEdgeStyle;curved=0;rounded=1;sketch=0;orthogonalLoop=1;jettySize=auto;html=1;entryX=0.469;entryY=-0.017;entryDx=0;entryDy=0;entryPerimeter=0;fontFamily=Comic Sans MS;fontColor=#46495D;strokeColor=#788AA3;fillColor=#B2C9AB;" parent="jrQexc0jOcobXFZHYx1S-1" source="jrQexc0jOcobXFZHYx1S-44" target="jrQexc0jOcobXFZHYx1S-5" edge="1">
          <mxGeometry relative="1" as="geometry" />
        </mxCell>
        <mxCell id="jrQexc0jOcobXFZHYx1S-44" value=".List" style="rounded=1;whiteSpace=wrap;html=1;comic=1;sketch=0;fontFamily=Comic Sans MS;fontColor=#46495D;strokeColor=#788AA3;fillColor=#B2C9AB;" parent="jrQexc0jOcobXFZHYx1S-1" vertex="1">
          <mxGeometry x="360" y="60" width="120" height="40" as="geometry" />
        </mxCell>
      </root>
    </mxGraphModel>
  </diagram>
  <diagram name="lambda-expr" id="bmbTspytElpD_PdoP70e">
    <mxGraphModel dx="1034" dy="593" grid="1" gridSize="10" guides="1" tooltips="1" connect="1" arrows="1" fold="1" page="1" pageScale="1" pageWidth="827" pageHeight="1169" math="0" shadow="0">
      <root>
        <mxCell id="inkvhUmKpUY3UdYv7l6d-0" />
        <mxCell id="inkvhUmKpUY3UdYv7l6d-1" parent="inkvhUmKpUY3UdYv7l6d-0" />
        <mxCell id="inkvhUmKpUY3UdYv7l6d-2" value="&lt;span&gt;(lambda (x y) (atom x))&lt;/span&gt;" style="text;html=1;align=center;verticalAlign=middle;resizable=0;points=[];autosize=1;strokeColor=#b46504;fontFamily=Comic Sans MS;comic=1;fillColor=#fad7ac;" vertex="1" parent="inkvhUmKpUY3UdYv7l6d-1">
          <mxGeometry x="350" y="20" width="140" height="20" as="geometry" />
        </mxCell>
        <mxCell id="inkvhUmKpUY3UdYv7l6d-3" style="edgeStyle=orthogonalEdgeStyle;curved=0;rounded=1;sketch=0;orthogonalLoop=1;jettySize=auto;html=1;fontFamily=Comic Sans MS;fontColor=#46495D;strokeColor=#788AA3;fillColor=#B2C9AB;exitX=0.513;exitY=1.025;exitDx=0;exitDy=0;exitPerimeter=0;entryX=0.526;entryY=0;entryDx=0;entryDy=0;entryPerimeter=0;" edge="1" parent="inkvhUmKpUY3UdYv7l6d-1" source="inkvhUmKpUY3UdYv7l6d-5" target="inkvhUmKpUY3UdYv7l6d-11">
          <mxGeometry relative="1" as="geometry">
            <mxPoint x="240" y="290" as="targetPoint" />
          </mxGeometry>
        </mxCell>
        <mxCell id="inkvhUmKpUY3UdYv7l6d-4" value="" style="shape=table;html=1;whiteSpace=wrap;startSize=0;container=1;collapsible=0;childLayout=tableLayout;fillColor=#B2C9AB;strokeColor=#788AA3;fontColor=#46495D;comic=1;fontFamily=Comic Sans MS;" vertex="1" parent="inkvhUmKpUY3UdYv7l6d-1">
          <mxGeometry x="100" y="180" width="480" height="40" as="geometry" />
        </mxCell>
        <mxCell id="inkvhUmKpUY3UdYv7l6d-5" value="" style="shape=partialRectangle;html=1;whiteSpace=wrap;collapsible=0;dropTarget=0;pointerEvents=0;fillColor=none;top=0;left=0;bottom=0;right=0;points=[[0,0.5],[1,0.5]];portConstraint=eastwest;strokeColor=#788AA3;fontColor=#46495D;comic=1;fontFamily=Comic Sans MS;" vertex="1" parent="inkvhUmKpUY3UdYv7l6d-4">
          <mxGeometry width="480" height="40" as="geometry" />
        </mxCell>
        <mxCell id="inkvhUmKpUY3UdYv7l6d-6" value=".Atom(lambda)" style="shape=partialRectangle;html=1;whiteSpace=wrap;connectable=0;overflow=hidden;fillColor=none;top=0;left=0;bottom=0;right=0;strokeColor=#788AA3;fontColor=#46495D;comic=1;fontFamily=Comic Sans MS;" vertex="1" parent="inkvhUmKpUY3UdYv7l6d-5">
          <mxGeometry width="160" height="40" as="geometry" />
        </mxCell>
        <mxCell id="inkvhUmKpUY3UdYv7l6d-8" value=".List" style="shape=partialRectangle;html=1;whiteSpace=wrap;connectable=0;overflow=hidden;fillColor=none;top=0;left=0;bottom=0;right=0;strokeColor=#788AA3;fontColor=#46495D;comic=1;fontFamily=Comic Sans MS;" vertex="1" parent="inkvhUmKpUY3UdYv7l6d-5">
          <mxGeometry x="160" width="160" height="40" as="geometry" />
        </mxCell>
        <mxCell id="inkvhUmKpUY3UdYv7l6d-9" value="&lt;span&gt;.List&lt;/span&gt;" style="shape=partialRectangle;html=1;whiteSpace=wrap;connectable=0;overflow=hidden;fillColor=none;top=0;left=0;bottom=0;right=0;strokeColor=#788AA3;fontColor=#46495D;comic=1;fontFamily=Comic Sans MS;" vertex="1" parent="inkvhUmKpUY3UdYv7l6d-5">
          <mxGeometry x="320" width="160" height="40" as="geometry" />
        </mxCell>
        <mxCell id="inkvhUmKpUY3UdYv7l6d-10" value="" style="shape=table;html=1;whiteSpace=wrap;startSize=0;container=1;collapsible=0;childLayout=tableLayout;fillColor=#B2C9AB;strokeColor=#788AA3;fontColor=#46495D;comic=1;fontFamily=Comic Sans MS;" vertex="1" parent="inkvhUmKpUY3UdYv7l6d-1">
          <mxGeometry x="210" y="300" width="190" height="40" as="geometry" />
        </mxCell>
        <mxCell id="inkvhUmKpUY3UdYv7l6d-11" value="" style="shape=partialRectangle;html=1;whiteSpace=wrap;collapsible=0;dropTarget=0;pointerEvents=0;fillColor=none;top=0;left=0;bottom=0;right=0;points=[[0,0.5],[1,0.5]];portConstraint=eastwest;strokeColor=#788AA3;fontColor=#46495D;comic=1;fontFamily=Comic Sans MS;" vertex="1" parent="inkvhUmKpUY3UdYv7l6d-10">
          <mxGeometry width="190" height="40" as="geometry" />
        </mxCell>
        <mxCell id="inkvhUmKpUY3UdYv7l6d-12" value=".Atom(x)" style="shape=partialRectangle;html=1;whiteSpace=wrap;connectable=0;overflow=hidden;fillColor=none;top=0;left=0;bottom=0;right=0;strokeColor=#788AA3;fontColor=#46495D;comic=1;fontFamily=Comic Sans MS;" vertex="1" parent="inkvhUmKpUY3UdYv7l6d-11">
          <mxGeometry width="95" height="40" as="geometry" />
        </mxCell>
        <mxCell id="inkvhUmKpUY3UdYv7l6d-20" value="&lt;span&gt;.Atom(y)&lt;/span&gt;" style="shape=partialRectangle;html=1;whiteSpace=wrap;connectable=0;overflow=hidden;fillColor=none;top=0;left=0;bottom=0;right=0;strokeColor=#788AA3;fontColor=#46495D;comic=1;fontFamily=Comic Sans MS;" vertex="1" parent="inkvhUmKpUY3UdYv7l6d-11">
          <mxGeometry x="95" width="95" height="40" as="geometry" />
        </mxCell>
        <mxCell id="inkvhUmKpUY3UdYv7l6d-13" value="" style="shape=table;html=1;whiteSpace=wrap;startSize=0;container=1;collapsible=0;childLayout=tableLayout;fillColor=#B2C9AB;strokeColor=#788AA3;fontColor=#46495D;comic=1;fontFamily=Comic Sans MS;" vertex="1" parent="inkvhUmKpUY3UdYv7l6d-1">
          <mxGeometry x="440" y="300" width="210" height="40" as="geometry" />
        </mxCell>
        <mxCell id="inkvhUmKpUY3UdYv7l6d-14" value="" style="shape=partialRectangle;html=1;whiteSpace=wrap;collapsible=0;dropTarget=0;pointerEvents=0;fillColor=none;top=0;left=0;bottom=0;right=0;points=[[0,0.5],[1,0.5]];portConstraint=eastwest;strokeColor=#788AA3;fontColor=#46495D;comic=1;fontFamily=Comic Sans MS;" vertex="1" parent="inkvhUmKpUY3UdYv7l6d-13">
          <mxGeometry width="210" height="40" as="geometry" />
        </mxCell>
        <mxCell id="inkvhUmKpUY3UdYv7l6d-15" value=".Atom(car)" style="shape=partialRectangle;html=1;whiteSpace=wrap;connectable=0;overflow=hidden;fillColor=none;top=0;left=0;bottom=0;right=0;strokeColor=#788AA3;fontColor=#46495D;comic=1;fontFamily=Comic Sans MS;" vertex="1" parent="inkvhUmKpUY3UdYv7l6d-14">
          <mxGeometry width="105" height="40" as="geometry" />
        </mxCell>
        <mxCell id="inkvhUmKpUY3UdYv7l6d-16" value="&lt;span&gt;.Atom(x)&lt;/span&gt;" style="shape=partialRectangle;html=1;whiteSpace=wrap;connectable=0;overflow=hidden;fillColor=none;top=0;left=0;bottom=0;right=0;strokeColor=#788AA3;fontColor=#46495D;comic=1;fontFamily=Comic Sans MS;" vertex="1" parent="inkvhUmKpUY3UdYv7l6d-14">
          <mxGeometry x="105" width="105" height="40" as="geometry" />
        </mxCell>
        <mxCell id="inkvhUmKpUY3UdYv7l6d-17" style="edgeStyle=orthogonalEdgeStyle;curved=0;rounded=1;sketch=0;orthogonalLoop=1;jettySize=auto;html=1;fontFamily=Comic Sans MS;fontColor=#46495D;strokeColor=#788AA3;fillColor=#B2C9AB;entryX=0.514;entryY=0.025;entryDx=0;entryDy=0;entryPerimeter=0;exitX=0.833;exitY=1.025;exitDx=0;exitDy=0;exitPerimeter=0;" edge="1" parent="inkvhUmKpUY3UdYv7l6d-1" target="inkvhUmKpUY3UdYv7l6d-14" source="inkvhUmKpUY3UdYv7l6d-5">
          <mxGeometry relative="1" as="geometry">
            <mxPoint x="710" y="290" as="targetPoint" />
            <mxPoint x="510" y="230" as="sourcePoint" />
          </mxGeometry>
        </mxCell>
        <mxCell id="inkvhUmKpUY3UdYv7l6d-18" style="edgeStyle=orthogonalEdgeStyle;curved=0;rounded=1;sketch=0;orthogonalLoop=1;jettySize=auto;html=1;entryX=0.469;entryY=-0.017;entryDx=0;entryDy=0;entryPerimeter=0;fontFamily=Comic Sans MS;fontColor=#46495D;strokeColor=#788AA3;fillColor=#B2C9AB;" edge="1" parent="inkvhUmKpUY3UdYv7l6d-1" source="inkvhUmKpUY3UdYv7l6d-19" target="inkvhUmKpUY3UdYv7l6d-5">
          <mxGeometry relative="1" as="geometry" />
        </mxCell>
        <mxCell id="inkvhUmKpUY3UdYv7l6d-19" value=".List" style="rounded=1;whiteSpace=wrap;html=1;comic=1;sketch=0;fontFamily=Comic Sans MS;fontColor=#46495D;strokeColor=#788AA3;fillColor=#B2C9AB;" vertex="1" parent="inkvhUmKpUY3UdYv7l6d-1">
          <mxGeometry x="360" y="60" width="120" height="40" as="geometry" />
        </mxCell>
      </root>
    </mxGraphModel>
  </diagram>
  <diagram name="cons-expr" id="NiI_0U_-uicHvoaqEJ-U">
    <mxGraphModel dx="1034" dy="593" grid="1" gridSize="10" guides="1" tooltips="1" connect="1" arrows="1" fold="1" page="1" pageScale="1" pageWidth="827" pageHeight="1169" math="0" shadow="0">
      <root>
        <mxCell id="7tSVd4NEbPZRGO7-qMvX-0" />
        <mxCell id="7tSVd4NEbPZRGO7-qMvX-1" parent="7tSVd4NEbPZRGO7-qMvX-0" />
        <mxCell id="7tSVd4NEbPZRGO7-qMvX-2" value="&lt;span&gt;(cons a (b c))&lt;/span&gt;" style="text;html=1;align=center;verticalAlign=middle;resizable=0;points=[];autosize=1;strokeColor=#b46504;fontFamily=Comic Sans MS;comic=1;fillColor=#fad7ac;" vertex="1" parent="7tSVd4NEbPZRGO7-qMvX-1">
          <mxGeometry x="290" y="20" width="90" height="20" as="geometry" />
        </mxCell>
        <mxCell id="7tSVd4NEbPZRGO7-qMvX-4" value="" style="shape=table;html=1;whiteSpace=wrap;startSize=0;container=1;collapsible=0;childLayout=tableLayout;fillColor=#B2C9AB;strokeColor=#788AA3;fontColor=#46495D;comic=1;fontFamily=Comic Sans MS;" vertex="1" parent="7tSVd4NEbPZRGO7-qMvX-1">
          <mxGeometry x="100" y="180" width="480" height="40" as="geometry" />
        </mxCell>
        <mxCell id="7tSVd4NEbPZRGO7-qMvX-5" value="" style="shape=partialRectangle;html=1;whiteSpace=wrap;collapsible=0;dropTarget=0;pointerEvents=0;fillColor=none;top=0;left=0;bottom=0;right=0;points=[[0,0.5],[1,0.5]];portConstraint=eastwest;strokeColor=#788AA3;fontColor=#46495D;comic=1;fontFamily=Comic Sans MS;" vertex="1" parent="7tSVd4NEbPZRGO7-qMvX-4">
          <mxGeometry width="480" height="40" as="geometry" />
        </mxCell>
        <mxCell id="7tSVd4NEbPZRGO7-qMvX-6" value=".Atom(cons)" style="shape=partialRectangle;html=1;whiteSpace=wrap;connectable=0;overflow=hidden;fillColor=none;top=0;left=0;bottom=0;right=0;strokeColor=#788AA3;fontColor=#46495D;comic=1;fontFamily=Comic Sans MS;" vertex="1" parent="7tSVd4NEbPZRGO7-qMvX-5">
          <mxGeometry width="160" height="40" as="geometry" />
        </mxCell>
        <mxCell id="7tSVd4NEbPZRGO7-qMvX-7" value=".Atom(a)" style="shape=partialRectangle;html=1;whiteSpace=wrap;connectable=0;overflow=hidden;fillColor=none;top=0;left=0;bottom=0;right=0;strokeColor=#788AA3;fontColor=#46495D;comic=1;fontFamily=Comic Sans MS;" vertex="1" parent="7tSVd4NEbPZRGO7-qMvX-5">
          <mxGeometry x="160" width="160" height="40" as="geometry" />
        </mxCell>
        <mxCell id="7tSVd4NEbPZRGO7-qMvX-9" value="&lt;span&gt;.List&lt;/span&gt;" style="shape=partialRectangle;html=1;whiteSpace=wrap;connectable=0;overflow=hidden;fillColor=none;top=0;left=0;bottom=0;right=0;strokeColor=#788AA3;fontColor=#46495D;comic=1;fontFamily=Comic Sans MS;" vertex="1" parent="7tSVd4NEbPZRGO7-qMvX-5">
          <mxGeometry x="320" width="160" height="40" as="geometry" />
        </mxCell>
        <mxCell id="7tSVd4NEbPZRGO7-qMvX-13" value="" style="shape=table;html=1;whiteSpace=wrap;startSize=0;container=1;collapsible=0;childLayout=tableLayout;fillColor=#B2C9AB;strokeColor=#788AA3;fontColor=#46495D;comic=1;fontFamily=Comic Sans MS;" vertex="1" parent="7tSVd4NEbPZRGO7-qMvX-1">
          <mxGeometry x="440" y="300" width="210" height="40" as="geometry" />
        </mxCell>
        <mxCell id="7tSVd4NEbPZRGO7-qMvX-14" value="" style="shape=partialRectangle;html=1;whiteSpace=wrap;collapsible=0;dropTarget=0;pointerEvents=0;fillColor=none;top=0;left=0;bottom=0;right=0;points=[[0,0.5],[1,0.5]];portConstraint=eastwest;strokeColor=#788AA3;fontColor=#46495D;comic=1;fontFamily=Comic Sans MS;" vertex="1" parent="7tSVd4NEbPZRGO7-qMvX-13">
          <mxGeometry width="210" height="40" as="geometry" />
        </mxCell>
        <mxCell id="7tSVd4NEbPZRGO7-qMvX-15" value=".Atom(b)" style="shape=partialRectangle;html=1;whiteSpace=wrap;connectable=0;overflow=hidden;fillColor=none;top=0;left=0;bottom=0;right=0;strokeColor=#788AA3;fontColor=#46495D;comic=1;fontFamily=Comic Sans MS;" vertex="1" parent="7tSVd4NEbPZRGO7-qMvX-14">
          <mxGeometry width="105" height="40" as="geometry" />
        </mxCell>
        <mxCell id="7tSVd4NEbPZRGO7-qMvX-16" value="&lt;span&gt;.Atom(c)&lt;/span&gt;" style="shape=partialRectangle;html=1;whiteSpace=wrap;connectable=0;overflow=hidden;fillColor=none;top=0;left=0;bottom=0;right=0;strokeColor=#788AA3;fontColor=#46495D;comic=1;fontFamily=Comic Sans MS;" vertex="1" parent="7tSVd4NEbPZRGO7-qMvX-14">
          <mxGeometry x="105" width="105" height="40" as="geometry" />
        </mxCell>
        <mxCell id="7tSVd4NEbPZRGO7-qMvX-17" style="edgeStyle=orthogonalEdgeStyle;curved=0;rounded=1;sketch=0;orthogonalLoop=1;jettySize=auto;html=1;fontFamily=Comic Sans MS;fontColor=#46495D;strokeColor=#788AA3;fillColor=#B2C9AB;entryX=0.514;entryY=0.025;entryDx=0;entryDy=0;entryPerimeter=0;exitX=0.854;exitY=1.025;exitDx=0;exitDy=0;exitPerimeter=0;" edge="1" parent="7tSVd4NEbPZRGO7-qMvX-1" target="7tSVd4NEbPZRGO7-qMvX-14" source="7tSVd4NEbPZRGO7-qMvX-5">
          <mxGeometry relative="1" as="geometry">
            <mxPoint x="710" y="290" as="targetPoint" />
            <mxPoint x="660" y="221" as="sourcePoint" />
          </mxGeometry>
        </mxCell>
        <mxCell id="7tSVd4NEbPZRGO7-qMvX-18" style="edgeStyle=orthogonalEdgeStyle;curved=0;rounded=1;sketch=0;orthogonalLoop=1;jettySize=auto;html=1;entryX=0.469;entryY=-0.017;entryDx=0;entryDy=0;entryPerimeter=0;fontFamily=Comic Sans MS;fontColor=#46495D;strokeColor=#788AA3;fillColor=#B2C9AB;" edge="1" parent="7tSVd4NEbPZRGO7-qMvX-1" source="7tSVd4NEbPZRGO7-qMvX-19" target="7tSVd4NEbPZRGO7-qMvX-5">
          <mxGeometry relative="1" as="geometry" />
        </mxCell>
        <mxCell id="7tSVd4NEbPZRGO7-qMvX-19" value=".List" style="rounded=1;whiteSpace=wrap;html=1;comic=1;sketch=0;fontFamily=Comic Sans MS;fontColor=#46495D;strokeColor=#788AA3;fillColor=#B2C9AB;" vertex="1" parent="7tSVd4NEbPZRGO7-qMvX-1">
          <mxGeometry x="275" y="70" width="120" height="40" as="geometry" />
        </mxCell>
      </root>
    </mxGraphModel>
  </diagram>
  <diagram name="car-expr" id="dVk7qr67ZJsnFIlq3QPI">
    <mxGraphModel dx="1034" dy="593" grid="1" gridSize="10" guides="1" tooltips="1" connect="1" arrows="1" fold="1" page="1" pageScale="1" pageWidth="827" pageHeight="1169" math="0" shadow="0">
      <root>
        <mxCell id="KZU6pVmfQUZ5KLrPS-8F-0" />
        <mxCell id="KZU6pVmfQUZ5KLrPS-8F-1" parent="KZU6pVmfQUZ5KLrPS-8F-0" />
        <mxCell id="KZU6pVmfQUZ5KLrPS-8F-2" value="(car (x y))" style="text;html=1;align=center;verticalAlign=middle;resizable=0;points=[];autosize=1;strokeColor=#b46504;fontFamily=Comic Sans MS;comic=1;fillColor=#fad7ac;" vertex="1" parent="KZU6pVmfQUZ5KLrPS-8F-1">
          <mxGeometry x="300" y="30" width="70" height="20" as="geometry" />
        </mxCell>
        <mxCell id="KZU6pVmfQUZ5KLrPS-8F-3" value="" style="shape=table;html=1;whiteSpace=wrap;startSize=0;container=1;collapsible=0;childLayout=tableLayout;fillColor=#B2C9AB;strokeColor=#788AA3;fontColor=#46495D;comic=1;fontFamily=Comic Sans MS;" vertex="1" parent="KZU6pVmfQUZ5KLrPS-8F-1">
          <mxGeometry x="175" y="180" width="320" height="40" as="geometry" />
        </mxCell>
        <mxCell id="KZU6pVmfQUZ5KLrPS-8F-4" value="" style="shape=partialRectangle;html=1;whiteSpace=wrap;collapsible=0;dropTarget=0;pointerEvents=0;fillColor=none;top=0;left=0;bottom=0;right=0;points=[[0,0.5],[1,0.5]];portConstraint=eastwest;strokeColor=#788AA3;fontColor=#46495D;comic=1;fontFamily=Comic Sans MS;" vertex="1" parent="KZU6pVmfQUZ5KLrPS-8F-3">
          <mxGeometry width="320" height="40" as="geometry" />
        </mxCell>
        <mxCell id="KZU6pVmfQUZ5KLrPS-8F-5" value=".Atom(car)" style="shape=partialRectangle;html=1;whiteSpace=wrap;connectable=0;overflow=hidden;fillColor=none;top=0;left=0;bottom=0;right=0;strokeColor=#788AA3;fontColor=#46495D;comic=1;fontFamily=Comic Sans MS;" vertex="1" parent="KZU6pVmfQUZ5KLrPS-8F-4">
          <mxGeometry width="160" height="40" as="geometry" />
        </mxCell>
        <mxCell id="KZU6pVmfQUZ5KLrPS-8F-7" value="&lt;span&gt;.List&lt;/span&gt;" style="shape=partialRectangle;html=1;whiteSpace=wrap;connectable=0;overflow=hidden;fillColor=none;top=0;left=0;bottom=0;right=0;strokeColor=#788AA3;fontColor=#46495D;comic=1;fontFamily=Comic Sans MS;" vertex="1" parent="KZU6pVmfQUZ5KLrPS-8F-4">
          <mxGeometry x="160" width="160" height="40" as="geometry" />
        </mxCell>
        <mxCell id="KZU6pVmfQUZ5KLrPS-8F-8" value="" style="shape=table;html=1;whiteSpace=wrap;startSize=0;container=1;collapsible=0;childLayout=tableLayout;fillColor=#B2C9AB;strokeColor=#788AA3;fontColor=#46495D;comic=1;fontFamily=Comic Sans MS;" vertex="1" parent="KZU6pVmfQUZ5KLrPS-8F-1">
          <mxGeometry x="330" y="290" width="210" height="40" as="geometry" />
        </mxCell>
        <mxCell id="KZU6pVmfQUZ5KLrPS-8F-9" value="" style="shape=partialRectangle;html=1;whiteSpace=wrap;collapsible=0;dropTarget=0;pointerEvents=0;fillColor=none;top=0;left=0;bottom=0;right=0;points=[[0,0.5],[1,0.5]];portConstraint=eastwest;strokeColor=#788AA3;fontColor=#46495D;comic=1;fontFamily=Comic Sans MS;" vertex="1" parent="KZU6pVmfQUZ5KLrPS-8F-8">
          <mxGeometry width="210" height="40" as="geometry" />
        </mxCell>
        <mxCell id="KZU6pVmfQUZ5KLrPS-8F-10" value=".Atom(x)" style="shape=partialRectangle;html=1;whiteSpace=wrap;connectable=0;overflow=hidden;fillColor=none;top=0;left=0;bottom=0;right=0;strokeColor=#788AA3;fontColor=#46495D;comic=1;fontFamily=Comic Sans MS;" vertex="1" parent="KZU6pVmfQUZ5KLrPS-8F-9">
          <mxGeometry width="105" height="40" as="geometry" />
        </mxCell>
        <mxCell id="KZU6pVmfQUZ5KLrPS-8F-11" value="&lt;span&gt;.Atom(y)&lt;/span&gt;" style="shape=partialRectangle;html=1;whiteSpace=wrap;connectable=0;overflow=hidden;fillColor=none;top=0;left=0;bottom=0;right=0;strokeColor=#788AA3;fontColor=#46495D;comic=1;fontFamily=Comic Sans MS;" vertex="1" parent="KZU6pVmfQUZ5KLrPS-8F-9">
          <mxGeometry x="105" width="105" height="40" as="geometry" />
        </mxCell>
        <mxCell id="KZU6pVmfQUZ5KLrPS-8F-12" style="edgeStyle=orthogonalEdgeStyle;curved=0;rounded=1;sketch=0;orthogonalLoop=1;jettySize=auto;html=1;fontFamily=Comic Sans MS;fontColor=#46495D;strokeColor=#788AA3;fillColor=#B2C9AB;entryX=0.514;entryY=0.025;entryDx=0;entryDy=0;entryPerimeter=0;exitX=0.854;exitY=1.025;exitDx=0;exitDy=0;exitPerimeter=0;" edge="1" parent="KZU6pVmfQUZ5KLrPS-8F-1" source="KZU6pVmfQUZ5KLrPS-8F-4" target="KZU6pVmfQUZ5KLrPS-8F-9">
          <mxGeometry relative="1" as="geometry">
            <mxPoint x="710" y="290" as="targetPoint" />
            <mxPoint x="660" y="221" as="sourcePoint" />
          </mxGeometry>
        </mxCell>
        <mxCell id="KZU6pVmfQUZ5KLrPS-8F-13" style="edgeStyle=orthogonalEdgeStyle;curved=0;rounded=1;sketch=0;orthogonalLoop=1;jettySize=auto;html=1;entryX=0.469;entryY=-0.017;entryDx=0;entryDy=0;entryPerimeter=0;fontFamily=Comic Sans MS;fontColor=#46495D;strokeColor=#788AA3;fillColor=#B2C9AB;" edge="1" parent="KZU6pVmfQUZ5KLrPS-8F-1" source="KZU6pVmfQUZ5KLrPS-8F-14" target="KZU6pVmfQUZ5KLrPS-8F-4">
          <mxGeometry relative="1" as="geometry" />
        </mxCell>
        <mxCell id="KZU6pVmfQUZ5KLrPS-8F-14" value=".List" style="rounded=1;whiteSpace=wrap;html=1;comic=1;sketch=0;fontFamily=Comic Sans MS;fontColor=#46495D;strokeColor=#788AA3;fillColor=#B2C9AB;" vertex="1" parent="KZU6pVmfQUZ5KLrPS-8F-1">
          <mxGeometry x="275" y="70" width="120" height="40" as="geometry" />
        </mxCell>
      </root>
    </mxGraphModel>
  </diagram>
  <diagram name="eval-expr" id="Ke903tpi348bwB6JQksT">
    <mxGraphModel dx="1034" dy="593" grid="1" gridSize="10" guides="1" tooltips="1" connect="1" arrows="1" fold="1" page="1" pageScale="1" pageWidth="827" pageHeight="1169" math="0" shadow="0">
      <root>
        <mxCell id="wvug5aJ2hrrtB0VLCE_j-0" />
        <mxCell id="wvug5aJ2hrrtB0VLCE_j-1" parent="wvug5aJ2hrrtB0VLCE_j-0" />
        <mxCell id="wvug5aJ2hrrtB0VLCE_j-2" value="(eval (atom a))" style="text;html=1;align=center;verticalAlign=middle;resizable=0;points=[];autosize=1;strokeColor=#b46504;fontFamily=Comic Sans MS;comic=1;fillColor=#fad7ac;" vertex="1" parent="wvug5aJ2hrrtB0VLCE_j-1">
          <mxGeometry x="285" y="30" width="100" height="20" as="geometry" />
        </mxCell>
        <mxCell id="wvug5aJ2hrrtB0VLCE_j-3" value="" style="shape=table;html=1;whiteSpace=wrap;startSize=0;container=1;collapsible=0;childLayout=tableLayout;fillColor=#B2C9AB;strokeColor=#788AA3;fontColor=#46495D;comic=1;fontFamily=Comic Sans MS;" vertex="1" parent="wvug5aJ2hrrtB0VLCE_j-1">
          <mxGeometry x="175" y="180" width="320" height="40" as="geometry" />
        </mxCell>
        <mxCell id="wvug5aJ2hrrtB0VLCE_j-4" value="" style="shape=partialRectangle;html=1;whiteSpace=wrap;collapsible=0;dropTarget=0;pointerEvents=0;fillColor=none;top=0;left=0;bottom=0;right=0;points=[[0,0.5],[1,0.5]];portConstraint=eastwest;strokeColor=#788AA3;fontColor=#46495D;comic=1;fontFamily=Comic Sans MS;" vertex="1" parent="wvug5aJ2hrrtB0VLCE_j-3">
          <mxGeometry width="320" height="40" as="geometry" />
        </mxCell>
        <mxCell id="wvug5aJ2hrrtB0VLCE_j-5" value=".Atom(eval)" style="shape=partialRectangle;html=1;whiteSpace=wrap;connectable=0;overflow=hidden;fillColor=none;top=0;left=0;bottom=0;right=0;strokeColor=#788AA3;fontColor=#46495D;comic=1;fontFamily=Comic Sans MS;" vertex="1" parent="wvug5aJ2hrrtB0VLCE_j-4">
          <mxGeometry width="160" height="40" as="geometry" />
        </mxCell>
        <mxCell id="wvug5aJ2hrrtB0VLCE_j-6" value="&lt;span&gt;.List&lt;/span&gt;" style="shape=partialRectangle;html=1;whiteSpace=wrap;connectable=0;overflow=hidden;fillColor=none;top=0;left=0;bottom=0;right=0;strokeColor=#788AA3;fontColor=#46495D;comic=1;fontFamily=Comic Sans MS;" vertex="1" parent="wvug5aJ2hrrtB0VLCE_j-4">
          <mxGeometry x="160" width="160" height="40" as="geometry" />
        </mxCell>
        <mxCell id="wvug5aJ2hrrtB0VLCE_j-7" value="" style="shape=table;html=1;whiteSpace=wrap;startSize=0;container=1;collapsible=0;childLayout=tableLayout;fillColor=#B2C9AB;strokeColor=#788AA3;fontColor=#46495D;comic=1;fontFamily=Comic Sans MS;" vertex="1" parent="wvug5aJ2hrrtB0VLCE_j-1">
          <mxGeometry x="330" y="290" width="210" height="40" as="geometry" />
        </mxCell>
        <mxCell id="wvug5aJ2hrrtB0VLCE_j-8" value="" style="shape=partialRectangle;html=1;whiteSpace=wrap;collapsible=0;dropTarget=0;pointerEvents=0;fillColor=none;top=0;left=0;bottom=0;right=0;points=[[0,0.5],[1,0.5]];portConstraint=eastwest;strokeColor=#788AA3;fontColor=#46495D;comic=1;fontFamily=Comic Sans MS;" vertex="1" parent="wvug5aJ2hrrtB0VLCE_j-7">
          <mxGeometry width="210" height="40" as="geometry" />
        </mxCell>
        <mxCell id="wvug5aJ2hrrtB0VLCE_j-9" value=".Atom(atom)" style="shape=partialRectangle;html=1;whiteSpace=wrap;connectable=0;overflow=hidden;fillColor=none;top=0;left=0;bottom=0;right=0;strokeColor=#788AA3;fontColor=#46495D;comic=1;fontFamily=Comic Sans MS;" vertex="1" parent="wvug5aJ2hrrtB0VLCE_j-8">
          <mxGeometry width="105" height="40" as="geometry" />
        </mxCell>
        <mxCell id="wvug5aJ2hrrtB0VLCE_j-10" value="&lt;span&gt;.Atom(a)&lt;/span&gt;" style="shape=partialRectangle;html=1;whiteSpace=wrap;connectable=0;overflow=hidden;fillColor=none;top=0;left=0;bottom=0;right=0;strokeColor=#788AA3;fontColor=#46495D;comic=1;fontFamily=Comic Sans MS;" vertex="1" parent="wvug5aJ2hrrtB0VLCE_j-8">
          <mxGeometry x="105" width="105" height="40" as="geometry" />
        </mxCell>
        <mxCell id="wvug5aJ2hrrtB0VLCE_j-11" style="edgeStyle=orthogonalEdgeStyle;curved=0;rounded=1;sketch=0;orthogonalLoop=1;jettySize=auto;html=1;fontFamily=Comic Sans MS;fontColor=#46495D;strokeColor=#788AA3;fillColor=#B2C9AB;entryX=0.514;entryY=0.025;entryDx=0;entryDy=0;entryPerimeter=0;exitX=0.738;exitY=0.975;exitDx=0;exitDy=0;exitPerimeter=0;" edge="1" parent="wvug5aJ2hrrtB0VLCE_j-1" source="wvug5aJ2hrrtB0VLCE_j-4" target="wvug5aJ2hrrtB0VLCE_j-8">
          <mxGeometry relative="1" as="geometry">
            <mxPoint x="710" y="290" as="targetPoint" />
            <mxPoint x="660" y="221" as="sourcePoint" />
          </mxGeometry>
        </mxCell>
        <mxCell id="wvug5aJ2hrrtB0VLCE_j-12" style="edgeStyle=orthogonalEdgeStyle;curved=0;rounded=1;sketch=0;orthogonalLoop=1;jettySize=auto;html=1;entryX=0.469;entryY=-0.017;entryDx=0;entryDy=0;entryPerimeter=0;fontFamily=Comic Sans MS;fontColor=#46495D;strokeColor=#788AA3;fillColor=#B2C9AB;" edge="1" parent="wvug5aJ2hrrtB0VLCE_j-1" source="wvug5aJ2hrrtB0VLCE_j-13" target="wvug5aJ2hrrtB0VLCE_j-4">
          <mxGeometry relative="1" as="geometry" />
        </mxCell>
        <mxCell id="wvug5aJ2hrrtB0VLCE_j-13" value=".List" style="rounded=1;whiteSpace=wrap;html=1;comic=1;sketch=0;fontFamily=Comic Sans MS;fontColor=#46495D;strokeColor=#788AA3;fillColor=#B2C9AB;" vertex="1" parent="wvug5aJ2hrrtB0VLCE_j-1">
          <mxGeometry x="275" y="70" width="120" height="40" as="geometry" />
        </mxCell>
      </root>
    </mxGraphModel>
  </diagram>
  <diagram name="parser-expr" id="_a7Hgt-qUJVutXI2f9kj">
    <mxGraphModel dx="1034" dy="593" grid="1" gridSize="10" guides="1" tooltips="1" connect="1" arrows="1" fold="1" page="1" pageScale="1" pageWidth="827" pageHeight="1169" math="0" shadow="0">
      <root>
        <mxCell id="avwK9SE9ANuYXfttoImr-0" />
        <mxCell id="avwK9SE9ANuYXfttoImr-1" parent="avwK9SE9ANuYXfttoImr-0" />
        <mxCell id="avwK9SE9ANuYXfttoImr-2" value="(a (b))" style="text;html=1;align=center;verticalAlign=middle;resizable=0;points=[];autosize=1;strokeColor=#b46504;fontFamily=Comic Sans MS;comic=1;fillColor=#fad7ac;" vertex="1" parent="avwK9SE9ANuYXfttoImr-1">
          <mxGeometry x="310" y="30" width="50" height="20" as="geometry" />
        </mxCell>
        <mxCell id="avwK9SE9ANuYXfttoImr-3" value="" style="shape=table;html=1;whiteSpace=wrap;startSize=0;container=1;collapsible=0;childLayout=tableLayout;fillColor=#B2C9AB;strokeColor=#788AA3;fontColor=#46495D;comic=1;fontFamily=Comic Sans MS;" vertex="1" parent="avwK9SE9ANuYXfttoImr-1">
          <mxGeometry x="175" y="180" width="320" height="40" as="geometry" />
        </mxCell>
        <mxCell id="avwK9SE9ANuYXfttoImr-4" value="" style="shape=partialRectangle;html=1;whiteSpace=wrap;collapsible=0;dropTarget=0;pointerEvents=0;fillColor=none;top=0;left=0;bottom=0;right=0;points=[[0,0.5],[1,0.5]];portConstraint=eastwest;strokeColor=#788AA3;fontColor=#46495D;comic=1;fontFamily=Comic Sans MS;" vertex="1" parent="avwK9SE9ANuYXfttoImr-3">
          <mxGeometry width="320" height="40" as="geometry" />
        </mxCell>
        <mxCell id="avwK9SE9ANuYXfttoImr-5" value=".Atom(a)" style="shape=partialRectangle;html=1;whiteSpace=wrap;connectable=0;overflow=hidden;fillColor=none;top=0;left=0;bottom=0;right=0;strokeColor=#788AA3;fontColor=#46495D;comic=1;fontFamily=Comic Sans MS;" vertex="1" parent="avwK9SE9ANuYXfttoImr-4">
          <mxGeometry width="160" height="40" as="geometry" />
        </mxCell>
        <mxCell id="avwK9SE9ANuYXfttoImr-6" value="&lt;span&gt;.List&lt;/span&gt;" style="shape=partialRectangle;html=1;whiteSpace=wrap;connectable=0;overflow=hidden;fillColor=none;top=0;left=0;bottom=0;right=0;strokeColor=#788AA3;fontColor=#46495D;comic=1;fontFamily=Comic Sans MS;" vertex="1" parent="avwK9SE9ANuYXfttoImr-4">
          <mxGeometry x="160" width="160" height="40" as="geometry" />
        </mxCell>
        <mxCell id="avwK9SE9ANuYXfttoImr-7" value="" style="shape=table;html=1;whiteSpace=wrap;startSize=0;container=1;collapsible=0;childLayout=tableLayout;fillColor=#B2C9AB;strokeColor=#788AA3;fontColor=#46495D;comic=1;fontFamily=Comic Sans MS;" vertex="1" parent="avwK9SE9ANuYXfttoImr-1">
          <mxGeometry x="370" y="280" width="105" height="40" as="geometry" />
        </mxCell>
        <mxCell id="avwK9SE9ANuYXfttoImr-8" value="" style="shape=partialRectangle;html=1;whiteSpace=wrap;collapsible=0;dropTarget=0;pointerEvents=0;fillColor=none;top=0;left=0;bottom=0;right=0;points=[[0,0.5],[1,0.5]];portConstraint=eastwest;strokeColor=#788AA3;fontColor=#46495D;comic=1;fontFamily=Comic Sans MS;" vertex="1" parent="avwK9SE9ANuYXfttoImr-7">
          <mxGeometry width="105" height="40" as="geometry" />
        </mxCell>
        <mxCell id="avwK9SE9ANuYXfttoImr-9" value=".Atom(b)" style="shape=partialRectangle;html=1;whiteSpace=wrap;connectable=0;overflow=hidden;fillColor=none;top=0;left=0;bottom=0;right=0;strokeColor=#788AA3;fontColor=#46495D;comic=1;fontFamily=Comic Sans MS;" vertex="1" parent="avwK9SE9ANuYXfttoImr-8">
          <mxGeometry width="105" height="40" as="geometry" />
        </mxCell>
        <mxCell id="avwK9SE9ANuYXfttoImr-11" style="edgeStyle=orthogonalEdgeStyle;curved=0;rounded=1;sketch=0;orthogonalLoop=1;jettySize=auto;html=1;fontFamily=Comic Sans MS;fontColor=#46495D;strokeColor=#788AA3;fillColor=#B2C9AB;entryX=0.514;entryY=0.025;entryDx=0;entryDy=0;entryPerimeter=0;exitX=0.738;exitY=0.975;exitDx=0;exitDy=0;exitPerimeter=0;" edge="1" parent="avwK9SE9ANuYXfttoImr-1" source="avwK9SE9ANuYXfttoImr-4" target="avwK9SE9ANuYXfttoImr-8">
          <mxGeometry relative="1" as="geometry">
            <mxPoint x="710" y="290" as="targetPoint" />
            <mxPoint x="660" y="221" as="sourcePoint" />
          </mxGeometry>
        </mxCell>
        <mxCell id="avwK9SE9ANuYXfttoImr-12" style="edgeStyle=orthogonalEdgeStyle;curved=0;rounded=1;sketch=0;orthogonalLoop=1;jettySize=auto;html=1;entryX=0.469;entryY=-0.017;entryDx=0;entryDy=0;entryPerimeter=0;fontFamily=Comic Sans MS;fontColor=#46495D;strokeColor=#788AA3;fillColor=#B2C9AB;" edge="1" parent="avwK9SE9ANuYXfttoImr-1" source="avwK9SE9ANuYXfttoImr-13" target="avwK9SE9ANuYXfttoImr-4">
          <mxGeometry relative="1" as="geometry" />
        </mxCell>
        <mxCell id="avwK9SE9ANuYXfttoImr-13" value=".List" style="rounded=1;whiteSpace=wrap;html=1;comic=1;sketch=0;fontFamily=Comic Sans MS;fontColor=#46495D;strokeColor=#788AA3;fillColor=#B2C9AB;" vertex="1" parent="avwK9SE9ANuYXfttoImr-1">
          <mxGeometry x="275" y="70" width="120" height="40" as="geometry" />
        </mxCell>
      </root>
    </mxGraphModel>
  </diagram>
  <diagram name="parser-expr3" id="7M0MIjewOCt4jxFRFToG">
    <mxGraphModel dx="1034" dy="593" grid="1" gridSize="10" guides="1" tooltips="1" connect="1" arrows="1" fold="1" page="1" pageScale="1" pageWidth="827" pageHeight="1169" math="0" shadow="0">
      <root>
        <mxCell id="skAyykKgy1ODtLQ79JIv-0" />
        <mxCell id="skAyykKgy1ODtLQ79JIv-1" parent="skAyykKgy1ODtLQ79JIv-0" />
        <mxCell id="skAyykKgy1ODtLQ79JIv-2" value="(a (b c))" style="text;html=1;align=center;verticalAlign=middle;resizable=0;points=[];autosize=1;strokeColor=#b46504;fontFamily=Comic Sans MS;comic=1;fillColor=#fad7ac;" vertex="1" parent="skAyykKgy1ODtLQ79JIv-1">
          <mxGeometry x="305" y="30" width="60" height="20" as="geometry" />
        </mxCell>
        <mxCell id="skAyykKgy1ODtLQ79JIv-3" value="" style="shape=table;html=1;whiteSpace=wrap;startSize=0;container=1;collapsible=0;childLayout=tableLayout;fillColor=#B2C9AB;strokeColor=#788AA3;fontColor=#46495D;comic=1;fontFamily=Comic Sans MS;" vertex="1" parent="skAyykKgy1ODtLQ79JIv-1">
          <mxGeometry x="175" y="180" width="320" height="40" as="geometry" />
        </mxCell>
        <mxCell id="skAyykKgy1ODtLQ79JIv-4" value="" style="shape=partialRectangle;html=1;whiteSpace=wrap;collapsible=0;dropTarget=0;pointerEvents=0;fillColor=none;top=0;left=0;bottom=0;right=0;points=[[0,0.5],[1,0.5]];portConstraint=eastwest;strokeColor=#788AA3;fontColor=#46495D;comic=1;fontFamily=Comic Sans MS;" vertex="1" parent="skAyykKgy1ODtLQ79JIv-3">
          <mxGeometry width="320" height="40" as="geometry" />
        </mxCell>
        <mxCell id="skAyykKgy1ODtLQ79JIv-5" value=".Atom(a)" style="shape=partialRectangle;html=1;whiteSpace=wrap;connectable=0;overflow=hidden;fillColor=none;top=0;left=0;bottom=0;right=0;strokeColor=#788AA3;fontColor=#46495D;comic=1;fontFamily=Comic Sans MS;" vertex="1" parent="skAyykKgy1ODtLQ79JIv-4">
          <mxGeometry width="160" height="40" as="geometry" />
        </mxCell>
        <mxCell id="skAyykKgy1ODtLQ79JIv-6" value="&lt;span&gt;.List&lt;/span&gt;" style="shape=partialRectangle;html=1;whiteSpace=wrap;connectable=0;overflow=hidden;fillColor=none;top=0;left=0;bottom=0;right=0;strokeColor=#788AA3;fontColor=#46495D;comic=1;fontFamily=Comic Sans MS;" vertex="1" parent="skAyykKgy1ODtLQ79JIv-4">
          <mxGeometry x="160" width="160" height="40" as="geometry" />
        </mxCell>
        <mxCell id="skAyykKgy1ODtLQ79JIv-7" value="" style="shape=table;html=1;whiteSpace=wrap;startSize=0;container=1;collapsible=0;childLayout=tableLayout;fillColor=#B2C9AB;strokeColor=#788AA3;fontColor=#46495D;comic=1;fontFamily=Comic Sans MS;" vertex="1" parent="skAyykKgy1ODtLQ79JIv-1">
          <mxGeometry x="320" y="280" width="210" height="40" as="geometry" />
        </mxCell>
        <mxCell id="skAyykKgy1ODtLQ79JIv-8" value="" style="shape=partialRectangle;html=1;whiteSpace=wrap;collapsible=0;dropTarget=0;pointerEvents=0;fillColor=none;top=0;left=0;bottom=0;right=0;points=[[0,0.5],[1,0.5]];portConstraint=eastwest;strokeColor=#788AA3;fontColor=#46495D;comic=1;fontFamily=Comic Sans MS;" vertex="1" parent="skAyykKgy1ODtLQ79JIv-7">
          <mxGeometry width="210" height="40" as="geometry" />
        </mxCell>
        <mxCell id="skAyykKgy1ODtLQ79JIv-9" value=".Atom(b)" style="shape=partialRectangle;html=1;whiteSpace=wrap;connectable=0;overflow=hidden;fillColor=none;top=0;left=0;bottom=0;right=0;strokeColor=#788AA3;fontColor=#46495D;comic=1;fontFamily=Comic Sans MS;" vertex="1" parent="skAyykKgy1ODtLQ79JIv-8">
          <mxGeometry width="105" height="40" as="geometry" />
        </mxCell>
        <mxCell id="skAyykKgy1ODtLQ79JIv-13" value="&lt;span&gt;.Atom(c)&lt;/span&gt;" style="shape=partialRectangle;html=1;whiteSpace=wrap;connectable=0;overflow=hidden;fillColor=none;top=0;left=0;bottom=0;right=0;strokeColor=#788AA3;fontColor=#46495D;comic=1;fontFamily=Comic Sans MS;" vertex="1" parent="skAyykKgy1ODtLQ79JIv-8">
          <mxGeometry x="105" width="105" height="40" as="geometry" />
        </mxCell>
        <mxCell id="skAyykKgy1ODtLQ79JIv-10" style="edgeStyle=orthogonalEdgeStyle;curved=0;rounded=1;sketch=0;orthogonalLoop=1;jettySize=auto;html=1;fontFamily=Comic Sans MS;fontColor=#46495D;strokeColor=#788AA3;fillColor=#B2C9AB;entryX=0.514;entryY=0.025;entryDx=0;entryDy=0;entryPerimeter=0;exitX=0.738;exitY=0.975;exitDx=0;exitDy=0;exitPerimeter=0;" edge="1" parent="skAyykKgy1ODtLQ79JIv-1" source="skAyykKgy1ODtLQ79JIv-4" target="skAyykKgy1ODtLQ79JIv-8">
          <mxGeometry relative="1" as="geometry">
            <mxPoint x="710" y="290" as="targetPoint" />
            <mxPoint x="660" y="221" as="sourcePoint" />
          </mxGeometry>
        </mxCell>
        <mxCell id="skAyykKgy1ODtLQ79JIv-11" style="edgeStyle=orthogonalEdgeStyle;curved=0;rounded=1;sketch=0;orthogonalLoop=1;jettySize=auto;html=1;entryX=0.469;entryY=-0.017;entryDx=0;entryDy=0;entryPerimeter=0;fontFamily=Comic Sans MS;fontColor=#46495D;strokeColor=#788AA3;fillColor=#B2C9AB;" edge="1" parent="skAyykKgy1ODtLQ79JIv-1" source="skAyykKgy1ODtLQ79JIv-12" target="skAyykKgy1ODtLQ79JIv-4">
          <mxGeometry relative="1" as="geometry" />
        </mxCell>
        <mxCell id="skAyykKgy1ODtLQ79JIv-12" value=".List" style="rounded=1;whiteSpace=wrap;html=1;comic=1;sketch=0;fontFamily=Comic Sans MS;fontColor=#46495D;strokeColor=#788AA3;fillColor=#B2C9AB;" vertex="1" parent="skAyykKgy1ODtLQ79JIv-1">
          <mxGeometry x="275" y="70" width="120" height="40" as="geometry" />
        </mxCell>
      </root>
    </mxGraphModel>
  </diagram>
  <diagram name="parser-expr2" id="RhIEoFzkxHobproI1nc4">
    <mxGraphModel dx="1034" dy="593" grid="1" gridSize="10" guides="1" tooltips="1" connect="1" arrows="1" fold="1" page="1" pageScale="1" pageWidth="827" pageHeight="1169" math="0" shadow="0">
      <root>
        <mxCell id="0Y0C0bldViHpI9w4_6S1-0" />
        <mxCell id="0Y0C0bldViHpI9w4_6S1-1" parent="0Y0C0bldViHpI9w4_6S1-0" />
        <mxCell id="0Y0C0bldViHpI9w4_6S1-2" value="(a b c)" style="text;html=1;align=center;verticalAlign=middle;resizable=0;points=[];autosize=1;strokeColor=#b46504;fontFamily=Comic Sans MS;comic=1;fillColor=#fad7ac;" vertex="1" parent="0Y0C0bldViHpI9w4_6S1-1">
          <mxGeometry x="310" y="30" width="50" height="20" as="geometry" />
        </mxCell>
        <mxCell id="0Y0C0bldViHpI9w4_6S1-3" value="" style="shape=table;html=1;whiteSpace=wrap;startSize=0;container=1;collapsible=0;childLayout=tableLayout;fillColor=#B2C9AB;strokeColor=#788AA3;fontColor=#46495D;comic=1;fontFamily=Comic Sans MS;" vertex="1" parent="0Y0C0bldViHpI9w4_6S1-1">
          <mxGeometry x="170" y="170" width="385" height="40" as="geometry" />
        </mxCell>
        <mxCell id="0Y0C0bldViHpI9w4_6S1-4" value="" style="shape=partialRectangle;html=1;whiteSpace=wrap;collapsible=0;dropTarget=0;pointerEvents=0;fillColor=none;top=0;left=0;bottom=0;right=0;points=[[0,0.5],[1,0.5]];portConstraint=eastwest;strokeColor=#788AA3;fontColor=#46495D;comic=1;fontFamily=Comic Sans MS;" vertex="1" parent="0Y0C0bldViHpI9w4_6S1-3">
          <mxGeometry width="385" height="40" as="geometry" />
        </mxCell>
        <mxCell id="0Y0C0bldViHpI9w4_6S1-5" value=".Atom(a)" style="shape=partialRectangle;html=1;whiteSpace=wrap;connectable=0;overflow=hidden;fillColor=none;top=0;left=0;bottom=0;right=0;strokeColor=#788AA3;fontColor=#46495D;comic=1;fontFamily=Comic Sans MS;" vertex="1" parent="0Y0C0bldViHpI9w4_6S1-4">
          <mxGeometry width="129" height="40" as="geometry" />
        </mxCell>
        <mxCell id="0Y0C0bldViHpI9w4_6S1-6" value=".Atom(b)" style="shape=partialRectangle;html=1;whiteSpace=wrap;connectable=0;overflow=hidden;fillColor=none;top=0;left=0;bottom=0;right=0;strokeColor=#788AA3;fontColor=#46495D;comic=1;fontFamily=Comic Sans MS;" vertex="1" parent="0Y0C0bldViHpI9w4_6S1-4">
          <mxGeometry x="129" width="127" height="40" as="geometry" />
        </mxCell>
        <mxCell id="0Y0C0bldViHpI9w4_6S1-13" value="&lt;span&gt;.Atom(c)&lt;/span&gt;" style="shape=partialRectangle;html=1;whiteSpace=wrap;connectable=0;overflow=hidden;fillColor=none;top=0;left=0;bottom=0;right=0;strokeColor=#788AA3;fontColor=#46495D;comic=1;fontFamily=Comic Sans MS;" vertex="1" parent="0Y0C0bldViHpI9w4_6S1-4">
          <mxGeometry x="256" width="129" height="40" as="geometry" />
        </mxCell>
        <mxCell id="0Y0C0bldViHpI9w4_6S1-11" style="edgeStyle=orthogonalEdgeStyle;curved=0;rounded=1;sketch=0;orthogonalLoop=1;jettySize=auto;html=1;entryX=0.469;entryY=-0.017;entryDx=0;entryDy=0;entryPerimeter=0;fontFamily=Comic Sans MS;fontColor=#46495D;strokeColor=#788AA3;fillColor=#B2C9AB;" edge="1" parent="0Y0C0bldViHpI9w4_6S1-1" source="0Y0C0bldViHpI9w4_6S1-12" target="0Y0C0bldViHpI9w4_6S1-4">
          <mxGeometry relative="1" as="geometry" />
        </mxCell>
        <mxCell id="0Y0C0bldViHpI9w4_6S1-12" value=".List" style="rounded=1;whiteSpace=wrap;html=1;comic=1;sketch=0;fontFamily=Comic Sans MS;fontColor=#46495D;strokeColor=#788AA3;fillColor=#B2C9AB;" vertex="1" parent="0Y0C0bldViHpI9w4_6S1-1">
          <mxGeometry x="275" y="70" width="120" height="40" as="geometry" />
        </mxCell>
      </root>
    </mxGraphModel>
  </diagram>
  <diagram name="equal-expr" id="8kUAjH0uqna3kqX7S8CN">
    <mxGraphModel dx="1034" dy="593" grid="1" gridSize="10" guides="1" tooltips="1" connect="1" arrows="1" fold="1" page="1" pageScale="1" pageWidth="827" pageHeight="1169" math="0" shadow="0">
      <root>
        <mxCell id="G_D4ktDwrZw7QYVPPkgs-0" />
        <mxCell id="G_D4ktDwrZw7QYVPPkgs-1" parent="G_D4ktDwrZw7QYVPPkgs-0" />
        <mxCell id="G_D4ktDwrZw7QYVPPkgs-2" value="&lt;span&gt;(equal A A)&lt;/span&gt;" style="text;html=1;align=center;verticalAlign=middle;resizable=0;points=[];autosize=1;strokeColor=#b46504;fontFamily=Comic Sans MS;comic=1;fillColor=#fad7ac;" vertex="1" parent="G_D4ktDwrZw7QYVPPkgs-1">
          <mxGeometry x="300" y="10" width="80" height="20" as="geometry" />
        </mxCell>
        <mxCell id="G_D4ktDwrZw7QYVPPkgs-4" value="" style="shape=table;html=1;whiteSpace=wrap;startSize=0;container=1;collapsible=0;childLayout=tableLayout;fillColor=#B2C9AB;strokeColor=#788AA3;fontColor=#46495D;comic=1;fontFamily=Comic Sans MS;" vertex="1" parent="G_D4ktDwrZw7QYVPPkgs-1">
          <mxGeometry x="100" y="180" width="480" height="40" as="geometry" />
        </mxCell>
        <mxCell id="G_D4ktDwrZw7QYVPPkgs-5" value="" style="shape=partialRectangle;html=1;whiteSpace=wrap;collapsible=0;dropTarget=0;pointerEvents=0;fillColor=none;top=0;left=0;bottom=0;right=0;points=[[0,0.5],[1,0.5]];portConstraint=eastwest;strokeColor=#788AA3;fontColor=#46495D;comic=1;fontFamily=Comic Sans MS;" vertex="1" parent="G_D4ktDwrZw7QYVPPkgs-4">
          <mxGeometry width="480" height="40" as="geometry" />
        </mxCell>
        <mxCell id="G_D4ktDwrZw7QYVPPkgs-6" value=".Atom(equal)" style="shape=partialRectangle;html=1;whiteSpace=wrap;connectable=0;overflow=hidden;fillColor=none;top=0;left=0;bottom=0;right=0;strokeColor=#788AA3;fontColor=#46495D;comic=1;fontFamily=Comic Sans MS;" vertex="1" parent="G_D4ktDwrZw7QYVPPkgs-5">
          <mxGeometry width="160" height="40" as="geometry" />
        </mxCell>
        <mxCell id="G_D4ktDwrZw7QYVPPkgs-7" value=".Atom(A)" style="shape=partialRectangle;html=1;whiteSpace=wrap;connectable=0;overflow=hidden;fillColor=none;top=0;left=0;bottom=0;right=0;strokeColor=#788AA3;fontColor=#46495D;comic=1;fontFamily=Comic Sans MS;" vertex="1" parent="G_D4ktDwrZw7QYVPPkgs-5">
          <mxGeometry x="160" width="160" height="40" as="geometry" />
        </mxCell>
        <mxCell id="G_D4ktDwrZw7QYVPPkgs-8" value=".Atom(A)" style="shape=partialRectangle;html=1;whiteSpace=wrap;connectable=0;overflow=hidden;fillColor=none;top=0;left=0;bottom=0;right=0;strokeColor=#788AA3;fontColor=#46495D;comic=1;fontFamily=Comic Sans MS;" vertex="1" parent="G_D4ktDwrZw7QYVPPkgs-5">
          <mxGeometry x="320" width="160" height="40" as="geometry" />
        </mxCell>
        <mxCell id="G_D4ktDwrZw7QYVPPkgs-18" style="edgeStyle=orthogonalEdgeStyle;curved=0;rounded=1;sketch=0;orthogonalLoop=1;jettySize=auto;html=1;entryX=0.469;entryY=-0.017;entryDx=0;entryDy=0;entryPerimeter=0;fontFamily=Comic Sans MS;fontColor=#46495D;strokeColor=#788AA3;fillColor=#B2C9AB;" edge="1" parent="G_D4ktDwrZw7QYVPPkgs-1" source="G_D4ktDwrZw7QYVPPkgs-19" target="G_D4ktDwrZw7QYVPPkgs-5">
          <mxGeometry relative="1" as="geometry" />
        </mxCell>
        <mxCell id="G_D4ktDwrZw7QYVPPkgs-19" value=".List" style="rounded=1;whiteSpace=wrap;html=1;comic=1;sketch=0;fontFamily=Comic Sans MS;fontColor=#46495D;strokeColor=#788AA3;fillColor=#B2C9AB;" vertex="1" parent="G_D4ktDwrZw7QYVPPkgs-1">
          <mxGeometry x="280" y="70" width="120" height="40" as="geometry" />
        </mxCell>
      </root>
    </mxGraphModel>
  </diagram>
  <diagram name="atom-expr" id="QP9kg6SSspwMOcFCl2QK">
    <mxGraphModel dx="1034" dy="593" grid="1" gridSize="10" guides="1" tooltips="1" connect="1" arrows="1" fold="1" page="1" pageScale="1" pageWidth="827" pageHeight="1169" math="0" shadow="0">
      <root>
        <mxCell id="x0tEFAy0yISxgC5Psl6N-0" />
        <mxCell id="x0tEFAy0yISxgC5Psl6N-1" parent="x0tEFAy0yISxgC5Psl6N-0" />
        <mxCell id="x0tEFAy0yISxgC5Psl6N-2" value="&lt;span&gt;(atom a)&lt;/span&gt;" style="text;html=1;align=center;verticalAlign=middle;resizable=0;points=[];autosize=1;strokeColor=#b46504;fontFamily=Comic Sans MS;comic=1;fillColor=#fad7ac;" vertex="1" parent="x0tEFAy0yISxgC5Psl6N-1">
          <mxGeometry x="310" y="50" width="60" height="20" as="geometry" />
        </mxCell>
        <mxCell id="x0tEFAy0yISxgC5Psl6N-3" value="" style="shape=table;html=1;whiteSpace=wrap;startSize=0;container=1;collapsible=0;childLayout=tableLayout;fillColor=#B2C9AB;strokeColor=#788AA3;fontColor=#46495D;comic=1;fontFamily=Comic Sans MS;" vertex="1" parent="x0tEFAy0yISxgC5Psl6N-1">
          <mxGeometry x="200" y="190" width="320" height="40" as="geometry" />
        </mxCell>
        <mxCell id="x0tEFAy0yISxgC5Psl6N-4" value="" style="shape=partialRectangle;html=1;whiteSpace=wrap;collapsible=0;dropTarget=0;pointerEvents=0;fillColor=none;top=0;left=0;bottom=0;right=0;points=[[0,0.5],[1,0.5]];portConstraint=eastwest;strokeColor=#788AA3;fontColor=#46495D;comic=1;fontFamily=Comic Sans MS;" vertex="1" parent="x0tEFAy0yISxgC5Psl6N-3">
          <mxGeometry width="320" height="40" as="geometry" />
        </mxCell>
        <mxCell id="x0tEFAy0yISxgC5Psl6N-5" value=".Atom(atom)" style="shape=partialRectangle;html=1;whiteSpace=wrap;connectable=0;overflow=hidden;fillColor=none;top=0;left=0;bottom=0;right=0;strokeColor=#788AA3;fontColor=#46495D;comic=1;fontFamily=Comic Sans MS;" vertex="1" parent="x0tEFAy0yISxgC5Psl6N-4">
          <mxGeometry width="160" height="40" as="geometry" />
        </mxCell>
        <mxCell id="x0tEFAy0yISxgC5Psl6N-6" value=".Atom(a)" style="shape=partialRectangle;html=1;whiteSpace=wrap;connectable=0;overflow=hidden;fillColor=none;top=0;left=0;bottom=0;right=0;strokeColor=#788AA3;fontColor=#46495D;comic=1;fontFamily=Comic Sans MS;" vertex="1" parent="x0tEFAy0yISxgC5Psl6N-4">
          <mxGeometry x="160" width="160" height="40" as="geometry" />
        </mxCell>
        <mxCell id="x0tEFAy0yISxgC5Psl6N-8" style="edgeStyle=orthogonalEdgeStyle;curved=0;rounded=1;sketch=0;orthogonalLoop=1;jettySize=auto;html=1;entryX=0.469;entryY=-0.017;entryDx=0;entryDy=0;entryPerimeter=0;fontFamily=Comic Sans MS;fontColor=#46495D;strokeColor=#788AA3;fillColor=#B2C9AB;" edge="1" parent="x0tEFAy0yISxgC5Psl6N-1" source="x0tEFAy0yISxgC5Psl6N-9" target="x0tEFAy0yISxgC5Psl6N-4">
          <mxGeometry relative="1" as="geometry" />
        </mxCell>
        <mxCell id="x0tEFAy0yISxgC5Psl6N-9" value=".List" style="rounded=1;whiteSpace=wrap;html=1;comic=1;sketch=0;fontFamily=Comic Sans MS;fontColor=#46495D;strokeColor=#788AA3;fillColor=#B2C9AB;" vertex="1" parent="x0tEFAy0yISxgC5Psl6N-1">
          <mxGeometry x="280" y="90" width="120" height="40" as="geometry" />
        </mxCell>
      </root>
    </mxGraphModel>
  </diagram>
  <diagram name="quote-expr" id="H_YeITA7OXunER5Td_Tq">
    <mxGraphModel dx="1034" dy="593" grid="1" gridSize="10" guides="1" tooltips="1" connect="1" arrows="1" fold="1" page="1" pageScale="1" pageWidth="827" pageHeight="1169" math="0" shadow="0">
      <root>
        <mxCell id="xz76TQrqiGGj4Lt2-OjN-0" />
        <mxCell id="xz76TQrqiGGj4Lt2-OjN-1" parent="xz76TQrqiGGj4Lt2-OjN-0" />
        <mxCell id="xz76TQrqiGGj4Lt2-OjN-2" value="&lt;span&gt;(quote x)&lt;/span&gt;" style="text;html=1;align=center;verticalAlign=middle;resizable=0;points=[];autosize=1;strokeColor=#b46504;fontFamily=Comic Sans MS;comic=1;fillColor=#fad7ac;" vertex="1" parent="xz76TQrqiGGj4Lt2-OjN-1">
          <mxGeometry x="305" y="50" width="70" height="20" as="geometry" />
        </mxCell>
        <mxCell id="xz76TQrqiGGj4Lt2-OjN-3" value="" style="shape=table;html=1;whiteSpace=wrap;startSize=0;container=1;collapsible=0;childLayout=tableLayout;fillColor=#B2C9AB;strokeColor=#788AA3;fontColor=#46495D;comic=1;fontFamily=Comic Sans MS;" vertex="1" parent="xz76TQrqiGGj4Lt2-OjN-1">
          <mxGeometry x="200" y="190" width="320" height="40" as="geometry" />
        </mxCell>
        <mxCell id="xz76TQrqiGGj4Lt2-OjN-4" value="" style="shape=partialRectangle;html=1;whiteSpace=wrap;collapsible=0;dropTarget=0;pointerEvents=0;fillColor=none;top=0;left=0;bottom=0;right=0;points=[[0,0.5],[1,0.5]];portConstraint=eastwest;strokeColor=#788AA3;fontColor=#46495D;comic=1;fontFamily=Comic Sans MS;" vertex="1" parent="xz76TQrqiGGj4Lt2-OjN-3">
          <mxGeometry width="320" height="40" as="geometry" />
        </mxCell>
        <mxCell id="xz76TQrqiGGj4Lt2-OjN-5" value=".Atom(quote)" style="shape=partialRectangle;html=1;whiteSpace=wrap;connectable=0;overflow=hidden;fillColor=none;top=0;left=0;bottom=0;right=0;strokeColor=#788AA3;fontColor=#46495D;comic=1;fontFamily=Comic Sans MS;" vertex="1" parent="xz76TQrqiGGj4Lt2-OjN-4">
          <mxGeometry width="160" height="40" as="geometry" />
        </mxCell>
        <mxCell id="xz76TQrqiGGj4Lt2-OjN-6" value=".Atom(x)" style="shape=partialRectangle;html=1;whiteSpace=wrap;connectable=0;overflow=hidden;fillColor=none;top=0;left=0;bottom=0;right=0;strokeColor=#788AA3;fontColor=#46495D;comic=1;fontFamily=Comic Sans MS;" vertex="1" parent="xz76TQrqiGGj4Lt2-OjN-4">
          <mxGeometry x="160" width="160" height="40" as="geometry" />
        </mxCell>
        <mxCell id="xz76TQrqiGGj4Lt2-OjN-7" style="edgeStyle=orthogonalEdgeStyle;curved=0;rounded=1;sketch=0;orthogonalLoop=1;jettySize=auto;html=1;entryX=0.469;entryY=-0.017;entryDx=0;entryDy=0;entryPerimeter=0;fontFamily=Comic Sans MS;fontColor=#46495D;strokeColor=#788AA3;fillColor=#B2C9AB;" edge="1" parent="xz76TQrqiGGj4Lt2-OjN-1" source="xz76TQrqiGGj4Lt2-OjN-8" target="xz76TQrqiGGj4Lt2-OjN-4">
          <mxGeometry relative="1" as="geometry" />
        </mxCell>
        <mxCell id="xz76TQrqiGGj4Lt2-OjN-8" value=".List" style="rounded=1;whiteSpace=wrap;html=1;comic=1;sketch=0;fontFamily=Comic Sans MS;fontColor=#46495D;strokeColor=#788AA3;fillColor=#B2C9AB;" vertex="1" parent="xz76TQrqiGGj4Lt2-OjN-1">
          <mxGeometry x="280" y="90" width="120" height="40" as="geometry" />
        </mxCell>
      </root>
    </mxGraphModel>
  </diagram>
</mxfile>
